<svg width="185" height="149" viewBox="0 0 185 149" fill="none" xmlns="http://www.w3.org/2000/svg">
<path d="M0 102.802C1.76256 100.504 2.9141 97.868 5.49918 96.0882C11.7269 91.8525 20.4222 93.2043 24.5348 99.3325C26.8614 102.825 28.4594 106.7 30.222 110.462C33.9586 118.37 39.6458 124.228 48.7171 126.211C59.5744 128.576 70.1498 127.878 79.8321 122.043C88.4334 116.861 91.7 107.218 87.7049 99.0621C84.9318 93.4296 79.8086 90.3656 73.9334 88.4505C64.9091 85.5216 55.5558 83.6742 46.367 81.2635C36.7787 78.7402 27.4019 75.8113 18.9886 70.4266C-3.97163 55.7597 -1.83306 22.1676 20.7512 9.1228C29.47 4.07611 38.8938 1.57529 48.8581 0.561449C58.0234 -0.384806 67.1652 -0.182037 76.213 1.53023C86.9529 3.58045 96.5882 7.79354 104.179 15.5664C109.608 21.1312 113.156 27.6198 113.086 35.4828C113.039 42.1967 108.245 47.7165 101.5 48.8205C97.5282 49.4738 91.3005 48.077 88.8799 43.571C86.6473 39.4255 84.1328 35.3701 81.3362 31.5175C77.2235 25.84 71.9359 22.3028 64.5566 21.4692C56.7779 20.5905 49.2576 20.8609 42.0194 23.97C38.8938 25.3218 36.2617 27.2819 34.2406 29.9179C29.3525 36.2938 30.8565 43.954 37.6717 48.7303C42.7479 52.2901 48.6701 53.777 54.5688 55.3316C64.8621 58.0577 75.3435 60.1755 85.4723 63.5325C92.875 65.9882 100.019 68.8946 106.176 73.6709C113.368 79.2583 117.621 86.3778 119.031 95.1194C120.582 104.785 119.525 114.09 114.989 122.899C110.031 132.542 101.852 138.917 91.8175 143.243C83.6627 146.78 75.0145 148.267 66.1312 148.786C56.4018 149.349 46.7665 148.876 37.3427 146.488C19.6466 142.004 7.28524 131.821 1.31604 114.991C0.775525 113.436 0.446515 111.814 0 110.214C0 107.736 0 105.28 0 102.802Z" fill="#0A82FA"/>
<path d="M142.327 101.901C142.327 89.9362 142.327 77.9573 142.327 65.9927C142.327 63.8251 142.639 61.7003 143.491 59.6896C145.054 55.9961 149.002 54.0281 153.135 54.7982C157.95 55.7109 160.521 58.8482 160.805 64.2387C160.89 65.9214 160.933 67.6042 160.933 69.2727C160.933 91.9184 160.933 114.564 160.933 137.224C160.933 139.62 160.748 142.002 159.626 144.183C157.95 147.463 154.47 149.346 150.834 148.946C146.758 148.504 144.003 146.28 142.937 142.529C142.469 140.903 142.312 139.235 142.312 137.552C142.312 125.659 142.312 113.766 142.312 101.872L142.327 101.901Z" fill="#0A82FA"/>
<path d="M150.584 0.00534279C161.254 -0.0505072 170.488 2.49067 178.639 8.24321C180.432 9.5138 182.092 10.924 183.693 12.404C185.131 13.7165 185.264 15.8947 184.049 17.3049C182.789 18.757 180.595 19.0641 178.891 17.9611C178.298 17.5702 177.779 17.0675 177.261 16.5928C170.992 10.8263 163.389 7.97793 154.748 7.29376C144.003 6.45601 134.503 9.23455 126.293 15.8388C124.44 17.3328 122.158 17.2211 120.616 15.6433C119.223 14.2052 119.431 11.9153 121.194 10.4074C125.952 6.35828 131.495 3.62163 137.586 1.84839C142.002 0.54988 146.538 -0.0644697 150.613 0.00534279H150.584Z" fill="#0A82FA"/>
<path d="M149.282 16.1406C157.347 16.1556 163.733 18.5077 168.938 24.0958C170.146 25.3842 170.59 26.8974 169.951 28.6952C169.424 30.1783 168.369 30.8525 166.995 31.0173C165.731 31.1671 164.676 30.5828 163.83 29.624C158.152 23.167 148.186 22.343 141.398 26.2082C140.19 26.8974 139.038 27.7064 138.011 28.6952C136.373 30.2532 133.916 30.3132 132.639 28.83C131.154 27.0921 131.403 24.5603 133.222 22.8224C137.608 18.6425 143.924 16.1556 149.282 16.1406Z" fill="#0A82FA"/>
<path d="M153.211 33.5269C156.698 33.4658 159.743 35.2072 162.375 37.8803C163.926 39.4537 163.983 41.974 162.631 43.5321C161.35 45.0138 159.003 45.1207 157.437 43.6543C155.104 41.4852 152.514 40.7062 149.526 41.7755C148.615 42.0962 147.861 42.692 147.107 43.2877C145.314 44.693 143.066 44.4639 141.743 42.7378C140.505 41.1186 140.804 38.7052 142.483 37.1471C145.485 34.3518 149.142 33.6644 153.211 33.5269Z" fill="#0A82FA"/>
</svg>
