<svg width="1280" height="389" viewBox="0 0 1280 389" fill="none" xmlns="http://www.w3.org/2000/svg">
<path d="M0 312.133C2.79986 308.326 4.6291 303.958 8.73556 301.009C18.6284 293.99 32.441 296.23 38.974 306.384C42.6699 312.171 45.2084 318.592 48.0083 324.826C53.944 337.93 62.9782 347.636 77.3881 350.921C94.6353 354.841 111.434 353.683 126.815 344.015C140.478 335.428 145.667 319.45 139.321 305.936C134.916 296.604 126.778 291.526 117.445 288.353C103.11 283.5 88.2516 280.439 73.655 276.445C58.4237 272.263 43.5285 267.41 30.1638 258.488C-6.30902 234.185 -2.91185 178.524 32.9637 156.909C46.8137 148.547 61.7836 144.403 77.6121 142.723C92.1714 141.155 106.693 141.491 121.066 144.329C138.126 147.726 153.432 154.707 165.49 167.586C174.114 176.807 179.751 187.558 179.639 200.587C179.564 211.712 171.949 220.858 161.235 222.687C154.926 223.77 145.033 221.455 141.188 213.989C137.641 207.12 133.647 200.4 129.204 194.017C122.671 184.609 114.272 178.748 102.55 177.367C90.1928 175.911 78.2467 176.359 66.7487 181.511C61.7836 183.751 57.6025 186.998 54.3919 191.366C46.627 201.931 49.0162 214.624 59.8423 222.538C67.9059 228.436 77.3135 230.9 86.6837 233.476C103.035 237.993 119.685 241.502 135.775 247.065C147.534 251.134 158.883 255.95 168.664 263.864C180.087 273.122 186.844 284.919 189.084 299.403C191.548 315.419 189.868 330.837 182.663 345.433C174.786 361.411 161.795 371.976 145.854 379.143C132.9 385.004 119.162 387.468 105.051 388.327C89.5955 389.26 74.2896 388.476 59.3197 384.519C31.2091 377.09 11.5728 360.216 2.09056 332.33C1.23194 329.754 0.709298 327.066 0 324.416C0 320.309 0 316.24 0 312.133Z" fill="white"/>
<path d="M717.479 265.019C717.479 233.287 717.479 201.518 717.479 169.786C717.479 165.456 718.114 161.237 719.495 157.131C723.751 144.55 734.315 140.518 745.814 142.161C758.208 143.915 766.01 153.659 766.047 166.8C766.122 189.646 766.122 212.456 766.047 235.303C766.047 238.103 766.533 239.111 769.668 239.111C802.072 238.961 834.476 238.999 866.88 239.111C869.493 239.111 870.09 238.364 870.09 235.863C870.015 214.36 870.09 192.857 870.09 171.354C870.09 166.725 870.613 162.133 872.031 157.728C876.287 144.363 887.785 140.444 898.611 142.235C911.192 144.289 918.173 152.987 918.696 166.688C918.994 174.266 918.808 181.844 918.808 189.422C918.808 209.917 918.584 230.375 918.845 250.87C919.293 286.186 918.957 321.539 919.032 356.854C919.032 363.312 918.77 369.733 915.858 375.744C911.005 385.711 902.158 390.004 889.428 388.362C880.431 387.205 873.114 379.813 871.247 369.995C870.09 364.022 870.053 358.011 870.053 351.964C870.053 328.93 870.015 305.897 870.09 282.826C870.09 280.25 869.605 279.317 866.768 279.317C834.252 279.429 801.773 279.391 769.258 279.317C766.607 279.317 766.085 280.213 766.085 282.639C766.159 309.48 766.271 336.284 766.085 363.126C766.01 372.72 762.725 381.344 753.579 385.861C739.729 392.655 720.951 388.362 718.076 367.008C717.703 364.283 717.591 361.521 717.591 358.758C717.591 327.512 717.591 296.302 717.591 265.056L717.479 265.019Z" fill="white"/>
<path d="M345.764 388.635C338.783 388.934 331.802 388.71 324.858 388.449C308.955 386.881 293.5 383.633 279.09 376.465C253.443 363.698 236.868 343.091 227.759 316.249C221.637 298.218 219.359 279.627 219.77 260.7C220.255 237.741 224.623 215.679 235.934 195.296C249.859 170.246 270.802 154.343 298.315 146.765C300.182 146.242 302.086 145.757 303.915 145.197C305.968 144.599 306.603 145.271 306.491 147.399C305.931 158.039 304.96 168.678 305.259 179.28C305.446 185.925 303.243 189.584 297.755 193.242C286.817 200.485 280.098 211.385 275.916 223.63C266.248 252.114 266.061 280.747 276.999 308.895C284.391 327.86 297.681 341.374 317.69 347.272C344.905 355.261 376.487 345.48 391.868 318.34C400.305 303.445 403.702 287.318 404.187 270.444C404.635 253.757 403.329 237.331 396.796 221.689C392.316 210.937 386.119 201.418 376.786 194.213C374.621 192.533 373.837 190.592 373.912 187.904C374.322 175.398 372.941 162.967 372.493 150.498C372.344 146.503 372.642 146.13 376.487 147.25C413.931 158.449 437.599 183.237 447.94 220.644C456.675 252.151 456.414 283.846 446.447 314.98C437.039 344.323 418.709 366.423 389.889 378.854C376.413 384.678 362.189 387.478 347.593 388.449C346.996 388.486 346.361 388.598 345.764 388.673V388.635Z" fill="white"/>
<path d="M1086.54 388.476C1082.85 389.222 1079.15 389.148 1075.45 388.401C1067.8 385.527 1061.31 381.308 1058.69 373.021C1056.53 366.152 1057.91 359.395 1060.41 352.936C1070.15 327.887 1080.01 302.875 1089.86 277.863C1101.89 247.326 1113.91 216.788 1126.08 186.326C1129.88 176.732 1132.98 166.802 1138.28 157.879C1151.42 135.63 1184.72 136.115 1197.38 158.663C1203.8 170.124 1208.02 182.555 1212.98 194.688C1226.57 228.025 1240.01 261.362 1253.49 294.774C1261.25 314.037 1269.02 333.263 1276.48 352.638C1278.72 358.424 1280.59 364.509 1278.95 370.893C1276.3 381.308 1267.08 388.326 1256.29 388.625C1246.62 388.886 1239.94 384.967 1235.83 376.044C1229.07 361.373 1222.8 346.478 1217.43 331.247C1216.57 328.82 1215.3 327.887 1212.72 327.887C1182.78 327.961 1152.84 327.961 1122.9 327.887C1120.14 327.887 1118.95 329.007 1118.05 331.471C1112.75 346.291 1107.26 361.037 1100.77 375.372C1097.85 381.756 1093.41 386.385 1086.58 388.476H1086.54ZM1167.51 194.725C1166.99 195.845 1166.58 196.555 1166.28 197.301C1155.01 226.905 1144.37 256.733 1134.29 286.785C1132.91 290.854 1133.02 290.966 1137.31 291.003C1158.03 291.265 1178.71 291.489 1199.43 290.667C1202.19 290.555 1202.38 289.809 1201.52 287.457C1193.42 265.506 1185.43 243.518 1177.41 221.529C1174.2 212.719 1170.91 203.909 1167.51 194.688V194.725Z" fill="white"/>
<path d="M494.867 267.576C494.867 236.666 494.867 205.755 494.867 174.845C494.867 171.671 495.054 168.536 495.763 165.4C498.302 153.976 504.014 148.601 515.624 146.771C520.178 146.062 524.807 145.913 529.399 145.875C548.662 145.763 567.925 145.651 587.225 145.875C601.225 146.062 615.261 146.585 628.999 149.87C652.742 155.582 671.707 175.965 675.514 200.043C677.68 213.744 677.792 227.258 674.394 240.809C669.168 261.64 656.326 275.677 636.652 283.741C624.184 288.818 611.192 291.057 597.716 291.431C580.506 291.879 563.296 291.692 546.086 291.879C543.697 291.879 543.212 292.663 543.249 294.865C543.286 317.6 543.249 340.298 543.174 363.033C543.174 371.544 540.15 378.749 533.356 384.237C523.09 392.524 500.915 390.061 496.323 372.141C495.353 368.446 494.83 364.712 494.83 360.942C494.83 329.808 494.83 298.71 494.83 267.576H494.867ZM543.398 219.008C543.398 229.871 543.51 240.697 543.324 251.561C543.249 254.547 544.332 255.107 546.982 255.07C557.547 254.883 568.112 255.033 578.639 254.809C586.516 254.622 594.393 254.473 602.046 252.158C610.259 249.657 617.837 246.148 622.504 238.569C628.813 228.341 629.111 217.328 625.826 206.054C622.877 195.937 616.232 189.404 606.152 186.343C597.641 183.767 588.943 182.834 580.095 182.796C568.821 182.796 557.547 182.796 546.273 182.759C544.145 182.759 543.324 183.506 543.361 185.857C543.51 196.908 543.436 207.958 543.436 219.045L543.398 219.008Z" fill="white"/>
<path d="M972.186 265.442C972.186 234.121 972.186 202.762 972.186 171.441C972.186 165.767 973.007 160.204 975.247 154.941C979.354 145.272 989.732 140.12 1000.6 142.136C1013.25 144.525 1020.01 152.738 1020.75 166.849C1020.98 171.255 1021.09 175.66 1021.09 180.027C1021.09 239.31 1021.09 298.592 1021.09 357.912C1021.09 364.184 1020.61 370.418 1017.66 376.13C1013.25 384.716 1004.1 389.644 994.548 388.598C983.834 387.441 976.591 381.617 973.792 371.799C972.56 367.543 972.149 363.176 972.149 358.771C972.149 327.636 972.149 296.502 972.149 265.367L972.186 265.442Z" fill="white"/>
<path d="M321.719 129.151C321.271 122.431 320.972 117.765 322.354 113.136C326.46 99.3979 334.636 97.4193 345.126 99.1739C354.757 100.779 359.947 107.76 360.544 118.549C360.992 126.762 360.17 134.9 359.797 143.076C359.461 150.729 359.088 158.382 358.789 166.035C358.192 180.855 357.557 195.676 355.616 210.384C354.944 215.536 352.928 220.24 349.68 224.346C345.051 230.207 337.137 230.021 332.657 224.01C328.252 218.075 326.759 211.056 325.415 204.001C323.698 194.817 323.735 185.484 323.474 176.189C322.988 159.838 322.242 143.486 321.719 129.151Z" fill="white"/>
<path d="M992.385 0.014285C1019.26 -0.135041 1042.52 6.65929 1063.05 22.0399C1067.57 25.437 1071.75 29.2075 1075.78 33.1646C1079.4 36.6738 1079.74 42.4975 1076.68 46.268C1073.51 50.1504 1067.98 50.9717 1063.69 48.0225C1062.19 46.9773 1060.89 45.6333 1059.58 44.3641C1043.79 28.9462 1024.64 21.3306 1002.88 19.5013C975.81 17.2614 951.88 24.6904 931.199 42.3482C926.532 46.3426 920.783 46.044 916.901 41.8255C913.391 37.9804 913.914 31.858 918.357 27.8262C930.34 17.0001 944.302 9.68314 959.645 4.94204C970.77 1.47021 982.193 -0.172372 992.46 0.014285H992.385Z" fill="white"/>
<path d="M990.034 43.793C1011.72 43.8303 1028.9 49.6913 1042.9 63.616C1046.14 66.8265 1047.34 70.597 1045.62 75.0767C1044.2 78.7726 1041.37 80.4525 1037.67 80.8631C1034.27 81.2364 1031.44 79.7805 1029.16 77.3913C1013.89 61.3014 987.085 59.2482 968.83 68.8797C965.582 70.597 962.484 72.6129 959.721 75.0767C955.316 78.9592 948.709 79.1085 945.274 75.4127C941.28 71.0823 941.952 64.7733 946.842 60.4428C958.639 50.0273 975.625 43.8303 990.034 43.793Z" fill="white"/>
<path d="M1000.37 90.2812C1009.52 90.1318 1017.5 94.3876 1024.41 100.921C1028.48 104.766 1028.63 110.925 1025.08 114.733C1021.72 118.354 1015.56 118.616 1011.46 115.032C1005.33 109.731 998.54 107.827 990.7 110.44C988.311 111.224 986.332 112.68 984.354 114.136C979.65 117.57 973.752 117.01 970.28 112.792C967.032 108.835 967.816 102.937 972.221 99.1287C980.098 92.297 989.692 90.6171 1000.37 90.2812Z" fill="white"/>
</svg>
