<svg width="257" height="343" viewBox="0 0 257 343" fill="none" xmlns="http://www.w3.org/2000/svg">
<rect width="257" height="343" fill="#BBBBBB"/>
<g clip-path="url(#clip0_786_6980)" filter="url(#filter0_d_786_6980)">
<rect width="103.939" height="161.378" transform="translate(77 91)" fill="#FBFBFB"/>
<rect x="77" y="91" width="103.939" height="161.378" fill="#FBFBFB"/>
<path d="M93.3604 102.202C93.3157 102.202 93.271 102.202 93.271 102.202C93.0922 102.156 93.0475 102.02 93.0028 101.883C93.0028 101.838 93.0028 101.792 93.0028 101.746C93.0028 100.927 93.0028 100.107 93.0028 99.2875C93.0028 99.1964 93.0028 99.1054 93.0475 99.0143C93.0922 98.8777 93.1816 98.8322 93.3157 98.8322C93.4499 98.8322 93.584 98.9232 93.6287 99.0598C93.6734 99.1964 93.6734 99.333 93.6734 99.4697C93.6734 99.6973 93.6734 99.925 93.6734 100.107C93.6734 100.153 93.6734 100.198 93.7628 100.198C94.1651 100.198 94.6122 100.198 95.0145 100.198C95.1039 100.198 95.1039 100.198 95.1039 100.107C95.1039 99.8339 95.1039 99.5607 95.1039 99.2875C95.1039 99.1964 95.1039 99.1054 95.1486 99.0143C95.1933 98.8777 95.3275 98.8322 95.4616 98.8322C95.551 98.8322 95.6404 98.9232 95.6851 99.0598C95.7298 99.1964 95.7298 99.333 95.7298 99.4697C95.7298 99.7884 95.7298 100.153 95.7298 100.471C95.7298 100.927 95.7298 101.337 95.7298 101.792C95.7298 101.883 95.7298 101.974 95.6851 102.065C95.6404 102.202 95.551 102.247 95.4169 102.247C95.2828 102.247 95.1933 102.202 95.1486 102.065C95.1039 101.929 95.1039 101.792 95.1039 101.655C95.1039 101.519 95.1039 101.337 95.1039 101.2C95.1039 101.063 95.1039 100.927 95.1039 100.79C95.1039 100.745 95.0592 100.745 95.0592 100.745C94.8357 100.745 94.6122 100.745 94.3887 100.745C94.1651 100.745 93.9416 100.745 93.7628 100.745C93.7181 100.745 93.6734 100.745 93.6734 100.79C93.6734 100.972 93.6734 101.154 93.6734 101.337C93.6734 101.519 93.6734 101.701 93.6734 101.883C93.6287 102.02 93.5393 102.156 93.3604 102.202Z" fill="#C2C2C2"/>
<path d="M87.4147 99.1509C87.4147 99.242 87.4147 99.2875 87.4147 99.3786C87.4147 99.4241 87.4147 99.4241 87.37 99.4241C87.1018 99.6063 86.9676 99.8795 86.9229 100.198C86.8335 100.563 86.8782 100.927 87.1018 101.291C87.2359 101.519 87.4594 101.655 87.7276 101.701C88.2194 101.746 88.577 101.473 88.6664 101.063C88.7558 100.745 88.8005 100.38 88.6664 100.062C88.6217 99.8795 88.4876 99.7429 88.3535 99.6063C88.2641 99.5152 88.2194 99.4241 88.2194 99.333C88.2194 99.242 88.2194 99.1054 88.2194 99.0143C88.2194 98.9232 88.2194 98.9232 88.3088 98.9688C88.577 99.0143 88.8005 99.1509 88.9794 99.3786C89.2029 99.6518 89.2923 99.9705 89.337 100.289C89.3817 100.608 89.337 100.927 89.2476 101.246C89.0241 101.792 88.6664 102.111 88.0853 102.202C87.7276 102.247 87.37 102.247 87.057 102.111C86.61 101.929 86.3865 101.564 86.2524 101.154C86.2077 100.563 86.2077 100.107 86.4312 99.6518C86.5653 99.4241 86.6994 99.1964 86.9229 99.0143C87.057 98.9232 87.1912 98.8777 87.3253 98.8777C87.37 98.8777 87.4147 98.8777 87.4147 98.9232C87.4147 99.0143 87.4147 99.0598 87.4147 99.1509Z" fill="#C2C2C2"/>
<path d="M84.6877 102.202C84.643 102.202 84.5536 102.202 84.5089 102.202C84.2406 102.202 83.9724 102.111 83.7489 101.974C83.5254 101.837 83.3912 101.61 83.3465 101.337C83.3018 101.154 83.4359 101.018 83.5701 100.972C83.6595 100.972 83.7042 100.972 83.7489 101.018C83.7936 101.063 83.8383 101.109 83.8383 101.154C83.883 101.245 83.9277 101.337 83.9724 101.428C84.0618 101.61 84.1959 101.701 84.4195 101.746C84.5983 101.792 84.8218 101.746 85.0006 101.655C85.09 101.61 85.1794 101.519 85.2241 101.428C85.2688 101.291 85.2688 101.2 85.1794 101.109C85.09 100.972 84.9112 100.881 84.7771 100.836C84.5536 100.745 84.33 100.745 84.1065 100.653C83.9277 100.608 83.7489 100.517 83.6148 100.38C83.3018 100.062 83.3018 99.5606 83.5701 99.2419C83.6595 99.1508 83.7936 99.0597 83.9277 99.0142C84.4195 98.7865 84.9112 98.7865 85.3583 99.0597C85.5371 99.1964 85.6712 99.333 85.7159 99.5606C85.7606 99.7428 85.6712 99.8794 85.5371 99.9249C85.4477 99.9705 85.3583 99.9249 85.3135 99.8794C85.2241 99.7883 85.1794 99.6972 85.1347 99.6062C85.1347 99.5606 85.09 99.5606 85.09 99.5151C85.0006 99.3785 84.8665 99.2874 84.7324 99.2419C84.5089 99.1964 84.33 99.2419 84.1512 99.3785C83.9724 99.5151 83.9724 99.7428 84.1512 99.8794C84.2853 99.9705 84.4642 100.016 84.5983 100.062C84.8665 100.153 85.1347 100.198 85.3583 100.335C85.5818 100.426 85.7606 100.562 85.85 100.79C85.9841 101.154 85.8947 101.746 85.3135 102.02C85.09 102.111 84.8665 102.156 84.6877 102.202Z" fill="#C2C2C2"/>
<path d="M96.445 100.881C96.445 100.563 96.445 100.289 96.445 99.9705C96.445 99.7429 96.4003 99.5607 96.445 99.333C96.445 99.1964 96.445 99.0598 96.4897 98.9688C96.5344 98.8322 96.6239 98.7866 96.758 98.7866C96.8921 98.7866 96.9815 98.8322 97.0709 98.9688C97.1156 99.1054 97.1603 99.242 97.1603 99.333C97.1603 99.5607 97.1603 99.7884 97.1603 100.016C97.1603 100.289 97.1603 100.563 97.1603 100.836C97.1603 101.154 97.1603 101.473 97.1603 101.746C97.1603 101.838 97.1603 101.883 97.1156 101.974C97.0709 102.065 96.9815 102.156 96.8474 102.156C96.6239 102.156 96.4897 102.065 96.4897 101.792C96.445 101.519 96.445 101.2 96.445 100.881Z" fill="#C2C2C2"/>
<path d="M96.758 97.0562C96.3109 97.0562 95.9086 97.1928 95.5956 97.466C95.4615 97.6027 95.4615 97.5571 95.3721 97.466C95.238 97.375 95.2827 97.3294 95.3721 97.2384C95.6403 97.0107 95.9533 96.8286 96.3109 96.783C97.0262 96.6464 97.6074 96.8286 98.1438 97.2839C98.2332 97.3294 98.2332 97.375 98.1438 97.4205C98.0991 97.4661 98.0991 97.4661 98.0544 97.5116C98.0097 97.5571 97.965 97.5571 97.9203 97.5116C97.8756 97.4661 97.8309 97.4661 97.7862 97.4205C97.5179 97.1928 97.2497 97.1018 96.8921 97.0562C96.8474 97.0562 96.8474 97.0562 96.8027 97.0562C96.8027 97.1018 96.8027 97.1018 96.758 97.0562Z" fill="#C2C2C2"/>
<path d="M88.0853 98.6499C88.0853 98.8321 88.0853 99.0598 88.0853 99.2419C88.0853 99.424 88.0853 99.6062 88.0406 99.7883C88.0406 99.8794 87.9959 99.9249 87.9512 100.016C87.9065 100.062 87.8618 100.062 87.7724 100.062C87.6829 100.062 87.6829 99.9705 87.6382 99.9249C87.5935 99.8794 87.5935 99.7883 87.5935 99.7428C87.5935 99.3785 87.5488 99.0142 87.5488 98.6499C87.5488 98.5589 87.5488 98.5133 87.5935 98.4223C87.6382 98.2856 87.7276 98.2401 87.8618 98.2401C87.9512 98.2401 88.0406 98.3312 88.0853 98.4223C88.0853 98.5133 88.13 98.6044 88.0853 98.6499Z" fill="#C2C2C2"/>
<path d="M96.6685 97.4205C97.0261 97.4205 97.3391 97.5116 97.6073 97.7393C97.7414 97.8304 97.7414 97.9214 97.6073 98.0125C97.5626 98.058 97.5179 98.058 97.4732 98.0125C97.3838 97.9214 97.2944 97.8759 97.1602 97.8304C96.7579 97.6937 96.4003 97.6937 96.0426 97.967C95.9979 98.0125 95.9532 98.0125 95.9532 98.058C95.9085 98.058 95.9085 98.058 95.8638 98.058C95.8191 98.0125 95.7744 97.967 95.7297 97.9214C95.685 97.8759 95.685 97.8304 95.7297 97.8304C95.9532 97.6482 96.1767 97.5116 96.4897 97.4661C96.5344 97.4205 96.6238 97.4205 96.6685 97.4205Z" fill="#C2C2C2"/>
<path d="M96.7133 98.1035C96.8474 98.1035 96.9368 98.1035 97.0709 98.1946C97.1156 98.1946 97.1156 98.2401 97.1156 98.2401C97.205 98.2857 97.205 98.3767 97.1156 98.4678C97.0262 98.5589 97.0262 98.5589 96.8921 98.5133C96.7133 98.4223 96.5792 98.4223 96.4004 98.5133C96.3557 98.5589 96.311 98.5589 96.2662 98.5133C96.2215 98.4678 96.2215 98.4678 96.1768 98.4223C96.1321 98.3767 96.1321 98.3312 96.1768 98.2857C96.4004 98.1491 96.5345 98.1491 96.7133 98.1035Z" fill="#C2C2C2"/>
<path d="M100.603 101.792C100.558 101.792 100.558 101.746 100.603 101.792C100.558 101.564 100.468 101.382 100.379 101.2C100.111 100.517 99.8425 99.8794 99.5743 99.1964C99.5296 99.1053 99.4849 99.0142 99.4402 98.9687C99.2614 98.6955 98.9037 98.6955 98.7249 98.9231C98.6355 99.0142 98.5908 99.1053 98.5461 99.2419C98.3226 99.9249 98.0096 100.608 97.7861 101.291C97.6967 101.473 97.652 101.655 97.6073 101.837C97.6073 101.928 97.6073 102.02 97.6967 102.111C97.7414 102.156 97.7861 102.156 97.8308 102.202C97.8755 102.202 97.8755 102.202 97.9202 102.202C98.0096 102.202 98.0543 102.156 98.0991 102.111C98.1438 102.065 98.1885 101.974 98.2332 101.883C98.2779 101.746 98.3226 101.61 98.3673 101.473C98.3673 101.428 98.412 101.382 98.4567 101.382C98.8143 101.382 99.172 101.382 99.5296 101.382C99.5743 101.382 99.5743 101.382 99.619 101.382C99.6637 101.382 99.7084 101.428 99.7084 101.473C99.7084 101.519 99.7531 101.564 99.7531 101.61C99.7978 101.746 99.8425 101.883 99.9319 102.02C99.9767 102.111 100.021 102.202 100.155 102.202C100.2 102.202 100.245 102.202 100.29 102.202C100.468 102.202 100.513 102.111 100.513 101.974V101.928C100.603 101.883 100.603 101.883 100.603 101.792C100.603 101.837 100.603 101.837 100.603 101.792ZM99.4402 100.881C99.172 100.881 98.9484 100.881 98.6802 100.881C98.5908 100.881 98.5908 100.881 98.6355 100.79C98.7696 100.426 98.859 100.016 99.0379 99.6517C99.0379 99.6062 99.0379 99.6062 99.0826 99.5606C99.172 99.7428 99.2167 99.9249 99.3061 100.062C99.3955 100.289 99.4849 100.517 99.5296 100.745C99.5296 100.836 99.5296 100.881 99.4402 100.881Z" fill="#C2C2C2"/>
<path d="M92.4216 99.6518C92.3769 99.2875 92.1534 99.0143 91.7958 98.8777C91.6169 98.8322 91.3934 98.8322 91.2146 98.8322C91.0358 98.8322 90.9017 98.8322 90.7228 98.8322C90.5887 98.8322 90.4546 98.8322 90.3205 98.8322C90.2758 98.8322 90.2311 98.8322 90.1864 98.8777C90.097 98.9232 90.0076 98.9688 89.9629 99.1054C89.9182 99.1964 89.9629 99.333 89.9629 99.4241C89.9629 100.062 89.9629 100.699 89.9629 101.337C89.9629 101.519 89.9629 101.655 89.9629 101.838C89.9629 101.974 90.0076 102.111 90.1417 102.156C90.1864 102.156 90.2311 102.156 90.2758 102.156C90.4099 102.111 90.4993 102.02 90.544 101.883C90.5887 101.792 90.5887 101.655 90.5887 101.564C90.5887 101.337 90.5887 101.154 90.5887 100.927C90.5887 100.836 90.5887 100.836 90.6781 100.836C90.857 100.836 90.9911 100.836 91.1699 100.836C91.3487 100.836 91.5275 100.836 91.7063 100.79C91.9746 100.699 92.1534 100.608 92.2428 100.335C92.4216 100.107 92.4216 99.8795 92.4216 99.6518ZM91.4381 100.335C91.2593 100.38 91.0805 100.38 90.9017 100.38C90.8123 100.38 90.7675 100.38 90.6781 100.38C90.6334 100.38 90.6334 100.38 90.6334 100.335C90.6334 100.016 90.6334 99.7429 90.6334 99.4241C90.6334 99.3786 90.6334 99.3786 90.6781 99.3786C90.9017 99.3786 91.1252 99.3786 91.304 99.3786C91.4381 99.3786 91.5722 99.4241 91.6616 99.5607C91.8852 99.7884 91.7511 100.244 91.4381 100.335Z" fill="#C2C2C2"/>
<path fill-rule="evenodd" clip-rule="evenodd" d="M96.3023 232.173L94.5614 233.207C94.1341 233.461 93.6483 233.595 93.1537 233.595H92.4647V236.304H93.1537C93.6483 236.304 94.1341 236.438 94.5614 236.692L96.3023 237.726V232.173ZM96.2374 231.612C96.4915 231.461 96.8105 231.647 96.8105 231.947V237.952C96.8105 238.251 96.4915 238.438 96.2374 238.287L94.3054 237.139C93.9558 236.932 93.5584 236.822 93.1537 236.822H92.4647C92.184 236.822 91.9564 236.59 91.9564 236.304V233.595C91.9564 233.309 92.184 233.077 92.4647 233.077H93.1537C93.5584 233.077 93.9558 232.967 94.3054 232.759L96.2374 231.612Z" fill="#ADADAD"/>
<path fill-rule="evenodd" clip-rule="evenodd" d="M97.3888 233.874C97.3888 233.731 97.5026 233.615 97.6429 233.615C98.3763 233.615 98.9835 234.205 98.9835 234.949C98.9835 235.694 98.3763 236.284 97.6429 236.284C97.5026 236.284 97.3888 236.168 97.3888 236.025C97.3888 235.882 97.5026 235.766 97.6429 235.766C98.1096 235.766 98.4753 235.394 98.4753 234.949C98.4753 234.505 98.1096 234.133 97.6429 234.133C97.5026 234.133 97.3888 234.017 97.3888 233.874Z" fill="#ADADAD"/>
<path fill-rule="evenodd" clip-rule="evenodd" d="M97.3888 232.798C97.3888 232.655 97.5026 232.539 97.6429 232.539C98.9764 232.539 100.07 233.611 100.07 234.949C100.07 236.288 98.9764 237.36 97.6429 237.36C97.5026 237.36 97.3888 237.244 97.3888 237.101C97.3888 236.958 97.5026 236.842 97.6429 236.842C98.7096 236.842 99.5617 235.988 99.5617 234.949C99.5617 233.911 98.7096 233.057 97.6429 233.057C97.5026 233.057 97.3888 232.941 97.3888 232.798Z" fill="#ADADAD"/>
<path fill-rule="evenodd" clip-rule="evenodd" d="M128.307 234.624C128.167 234.611 128.065 234.484 128.078 234.342C128.101 234.09 128.163 233.721 128.4 233.397C128.645 233.063 129.05 232.815 129.688 232.755C129.827 232.742 129.951 232.847 129.964 232.989C129.977 233.132 129.874 233.258 129.734 233.271C129.215 233.319 128.952 233.51 128.807 233.708C128.654 233.916 128.604 234.169 128.584 234.391C128.571 234.533 128.447 234.638 128.307 234.624Z" fill="#ADADAD"/>
<path fill-rule="evenodd" clip-rule="evenodd" d="M129.598 232.24C128.479 232.24 127.572 233.164 127.572 234.304C127.572 234.929 127.695 235.424 127.936 235.763C127.968 235.807 128.002 235.854 128.037 235.902C128.189 236.111 128.366 236.355 128.507 236.606C128.686 236.925 128.839 237.309 128.839 237.75V238.304H130.358V237.778C130.358 237.331 130.516 236.943 130.698 236.623C130.833 236.384 131.003 236.147 131.149 235.944C131.192 235.884 131.234 235.827 131.271 235.773C131.508 235.436 131.625 234.939 131.625 234.304C131.625 233.164 130.718 232.24 129.598 232.24ZM127.063 234.304C127.063 232.878 128.198 231.722 129.598 231.722C130.999 231.722 132.134 232.878 132.134 234.304C132.134 234.989 132.009 235.613 131.684 236.075C131.64 236.139 131.594 236.203 131.547 236.267C131.214 236.73 130.866 237.215 130.866 237.778V238.563C130.866 238.706 130.752 238.822 130.612 238.822H128.585C128.445 238.822 128.331 238.706 128.331 238.563V237.75C128.331 237.179 127.975 236.688 127.637 236.222C127.599 236.17 127.562 236.119 127.526 236.068C127.196 235.606 127.063 234.986 127.063 234.304Z" fill="#ADADAD"/>
<path d="M207.573 87.8189L180.939 305.289L93.89 54.6739L207.573 87.8189Z" fill="white"/>
<path d="M110.716 134.774H106.126C106.065 134.774 106.007 134.749 105.964 134.704C105.921 134.658 105.897 134.597 105.897 134.533C105.897 134.469 105.921 134.407 105.964 134.362C106.007 134.317 106.065 134.292 106.126 134.292H110.716C110.958 134.293 111.191 134.194 111.364 134.017C111.538 133.84 111.639 133.599 111.646 133.344V121.215C111.646 121.087 111.622 120.96 111.575 120.842C111.528 120.723 111.46 120.616 111.373 120.526C111.287 120.436 111.184 120.364 111.071 120.316C110.959 120.268 110.838 120.244 110.716 120.245H99.2313C98.9871 120.245 98.7529 120.347 98.5802 120.529C98.4075 120.711 98.3105 120.958 98.3105 121.215V133.344C98.3105 133.602 98.4075 133.848 98.5802 134.03C98.7529 134.212 98.9871 134.314 99.2313 134.314H103.826C103.887 134.314 103.945 134.34 103.988 134.385C104.031 134.43 104.055 134.492 104.055 134.556C104.055 134.62 104.031 134.681 103.988 134.726C103.945 134.772 103.887 134.797 103.826 134.797H99.2313C98.8652 134.797 98.514 134.644 98.2547 134.372C97.9954 134.1 97.8492 133.73 97.848 133.344V121.215C97.8492 120.829 97.9953 120.459 98.2544 120.186C98.5136 119.913 98.8648 119.759 99.2313 119.758H110.716C111.083 119.759 111.433 119.913 111.692 120.186C111.95 120.459 112.095 120.829 112.095 121.215V133.344C112.09 133.726 111.942 134.089 111.684 134.357C111.426 134.624 111.078 134.774 110.716 134.774Z" fill="#ADADAD"/>
<path d="M110.717 119.607C111.125 119.609 111.515 119.781 111.801 120.083C112.087 120.385 112.245 120.792 112.245 121.215V133.347C112.239 133.765 112.077 134.165 111.792 134.461C111.507 134.757 111.12 134.924 110.716 134.924H106.126C106.023 134.924 105.925 134.881 105.855 134.807C105.785 134.733 105.747 134.634 105.746 134.533C105.746 134.432 105.785 134.333 105.855 134.259C105.925 134.185 106.023 134.142 106.126 134.142H110.717C110.917 134.143 111.111 134.061 111.257 133.912C111.403 133.764 111.489 133.561 111.495 133.345V121.215C111.495 121.105 111.476 120.997 111.436 120.896C111.396 120.796 111.338 120.706 111.265 120.63C111.192 120.554 111.106 120.494 111.012 120.454C110.918 120.414 110.819 120.394 110.718 120.395H99.2308C99.0292 120.395 98.8339 120.48 98.6888 120.633C98.5436 120.786 98.4603 120.995 98.4603 121.215V133.345C98.4604 133.564 98.5435 133.774 98.6888 133.927C98.834 134.08 99.0292 134.164 99.2308 134.164H103.827C103.929 134.164 104.027 134.207 104.097 134.281C104.167 134.355 104.205 134.454 104.205 134.556C104.205 134.657 104.167 134.755 104.097 134.829C104.027 134.903 103.93 134.947 103.827 134.947H99.2308C98.8226 134.947 98.4325 134.777 98.1459 134.476C97.8594 134.175 97.6989 133.768 97.6976 133.345V121.215C97.6989 120.792 97.8597 120.385 98.1459 120.083C98.4324 119.781 98.8221 119.609 99.2308 119.607H110.717Z" stroke="#C5C5C5" stroke-opacity="0.4" stroke-width="0.3" stroke-miterlimit="10"/>
<path d="M159.061 134.774H154.462C154.401 134.774 154.343 134.749 154.3 134.704C154.257 134.658 154.232 134.597 154.232 134.533C154.232 134.469 154.257 134.407 154.3 134.362C154.343 134.317 154.401 134.292 154.462 134.292H159.061C159.303 134.294 159.537 134.196 159.711 134.019C159.886 133.842 159.988 133.6 159.995 133.344V121.215C159.995 120.958 159.898 120.711 159.725 120.529C159.552 120.347 159.318 120.245 159.074 120.245H147.567C147.323 120.245 147.089 120.347 146.916 120.529C146.743 120.711 146.646 120.958 146.646 121.215V133.344C146.646 133.602 146.743 133.848 146.916 134.03C147.089 134.212 147.323 134.314 147.567 134.314H152.162C152.223 134.314 152.281 134.34 152.324 134.385C152.367 134.43 152.391 134.492 152.391 134.556C152.391 134.62 152.367 134.681 152.324 134.726C152.281 134.772 152.223 134.797 152.162 134.797H147.567C147.201 134.797 146.85 134.644 146.59 134.372C146.331 134.1 146.185 133.73 146.184 133.344V121.215C146.185 120.829 146.331 120.459 146.59 120.186C146.849 119.913 147.2 119.759 147.567 119.758H159.061C159.427 119.759 159.778 119.913 160.036 120.186C160.295 120.459 160.44 120.829 160.44 121.215V133.344C160.434 133.726 160.286 134.089 160.028 134.357C159.77 134.624 159.423 134.774 159.061 134.774Z" fill="#ADADAD"/>
<path d="M159.062 119.607C159.47 119.609 159.859 119.781 160.145 120.083C160.43 120.385 160.59 120.792 160.59 121.215V133.347C160.584 133.765 160.421 134.165 160.136 134.461C159.85 134.757 159.465 134.924 159.061 134.924H154.462C154.359 134.924 154.261 134.881 154.191 134.807C154.121 134.733 154.082 134.634 154.082 134.533C154.082 134.432 154.12 134.333 154.191 134.259C154.261 134.185 154.359 134.142 154.462 134.142H159.063C159.263 134.144 159.458 134.063 159.605 133.914C159.751 133.766 159.838 133.562 159.845 133.345V121.215C159.845 120.995 159.762 120.786 159.616 120.633C159.471 120.48 159.275 120.395 159.073 120.395H147.567C147.365 120.395 147.17 120.48 147.025 120.633C146.879 120.786 146.796 120.995 146.796 121.215V133.345C146.796 133.564 146.879 133.774 147.025 133.927C147.17 134.08 147.365 134.164 147.567 134.164H152.162C152.265 134.164 152.362 134.207 152.433 134.281C152.503 134.355 152.541 134.454 152.541 134.556C152.541 134.657 152.503 134.755 152.433 134.829C152.362 134.903 152.265 134.947 152.162 134.947H147.567C147.158 134.947 146.768 134.777 146.482 134.476C146.195 134.175 146.035 133.768 146.033 133.345V121.215C146.035 120.792 146.195 120.385 146.482 120.083C146.768 119.781 147.158 119.609 147.567 119.607H159.062Z" stroke="#C5C5C5" stroke-opacity="0.4" stroke-width="0.3" stroke-miterlimit="10"/>
<path d="M110.678 209.952H106.083C106.05 209.957 106.016 209.954 105.984 209.944C105.952 209.934 105.923 209.917 105.898 209.893C105.872 209.87 105.852 209.842 105.838 209.81C105.825 209.778 105.818 209.743 105.818 209.708C105.818 209.673 105.825 209.638 105.838 209.606C105.852 209.574 105.872 209.546 105.898 209.523C105.923 209.5 105.952 209.483 105.984 209.473C106.016 209.463 106.05 209.46 106.083 209.465H110.678C110.919 209.46 111.149 209.356 111.317 209.174C111.486 208.993 111.581 208.749 111.581 208.495V196.388C111.581 196.131 111.484 195.884 111.311 195.702C111.139 195.52 110.905 195.418 110.66 195.418H99.1837C98.9399 195.419 98.7064 195.522 98.5339 195.703C98.3615 195.885 98.2641 196.131 98.263 196.388V208.495C98.263 208.752 98.36 208.999 98.5327 209.181C98.7053 209.362 98.9395 209.465 99.1837 209.465H103.8C103.856 209.473 103.907 209.502 103.945 209.547C103.982 209.591 104.002 209.649 104.002 209.708C104.002 209.768 103.982 209.825 103.945 209.87C103.907 209.915 103.856 209.944 103.8 209.952H99.1837C98.8176 209.951 98.4669 209.797 98.2084 209.523C97.9499 209.25 97.8048 208.88 97.8048 208.495V196.388C97.8048 196.003 97.9501 195.633 98.2087 195.361C98.4673 195.088 98.818 194.935 99.1837 194.935H110.678C111.044 194.935 111.395 195.088 111.654 195.361C111.913 195.633 112.06 196.002 112.061 196.388V208.495C112.06 208.881 111.914 209.251 111.654 209.524C111.395 209.797 111.044 209.951 110.678 209.952Z" fill="#ADADAD"/>
<path d="M110.678 194.785C111.086 194.785 111.476 194.956 111.763 195.257C112.049 195.558 112.21 195.965 112.211 196.388V208.495L112.203 208.653C112.168 209.019 112.013 209.363 111.763 209.627C111.512 209.891 111.183 210.056 110.83 210.094L110.678 210.101H106.083V210.1C106.034 210.105 105.985 210.101 105.939 210.087C105.885 210.07 105.837 210.041 105.796 210.004C105.755 209.966 105.722 209.92 105.7 209.869C105.678 209.818 105.667 209.763 105.667 209.708C105.667 209.653 105.678 209.598 105.7 209.547C105.722 209.496 105.755 209.45 105.796 209.412C105.837 209.375 105.886 209.347 105.939 209.33C105.985 209.315 106.035 209.311 106.083 209.315V209.314H110.675C110.874 209.31 111.066 209.225 111.208 209.072C111.35 208.919 111.431 208.712 111.431 208.495V196.388C111.431 196.168 111.348 195.959 111.202 195.806C111.057 195.653 110.862 195.568 110.66 195.568H99.1847L99.1095 195.572C98.935 195.591 98.7698 195.673 98.6427 195.807C98.4973 195.96 98.4142 196.169 98.4132 196.389V208.495C98.4133 208.715 98.4963 208.924 98.6417 209.077C98.7869 209.23 98.9819 209.314 99.1837 209.314H103.811L103.821 209.316C103.915 209.33 104 209.379 104.06 209.451C104.12 209.523 104.152 209.614 104.152 209.708C104.152 209.801 104.12 209.893 104.06 209.966C104 210.038 103.915 210.087 103.821 210.1L103.811 210.101H99.1837C98.7754 210.1 98.3855 209.929 98.0997 209.627C97.8142 209.325 97.6545 208.918 97.6544 208.495V196.388C97.6545 195.965 97.8141 195.559 98.0997 195.258C98.3858 194.956 98.7756 194.785 99.1837 194.785H110.678Z" stroke="#C5C5C5" stroke-opacity="0.4" stroke-width="0.3" stroke-miterlimit="10"/>
<path d="M159.13 209.952H154.526C154.47 209.944 154.419 209.915 154.382 209.87C154.345 209.825 154.325 209.768 154.325 209.708C154.325 209.649 154.345 209.591 154.382 209.547C154.419 209.502 154.47 209.473 154.526 209.465H159.13C159.374 209.465 159.608 209.362 159.781 209.181C159.954 208.999 160.051 208.752 160.051 208.495V196.388C160.05 196.131 159.952 195.885 159.78 195.703C159.607 195.522 159.374 195.419 159.13 195.418H147.632C147.388 195.419 147.155 195.522 146.984 195.704C146.812 195.885 146.715 196.131 146.715 196.388V208.495C146.715 208.622 146.738 208.748 146.784 208.866C146.83 208.983 146.897 209.09 146.982 209.18C147.067 209.27 147.169 209.342 147.28 209.391C147.392 209.439 147.511 209.465 147.632 209.465H152.214C152.27 209.473 152.321 209.502 152.358 209.547C152.395 209.591 152.415 209.649 152.415 209.708C152.415 209.768 152.395 209.825 152.358 209.87C152.321 209.915 152.27 209.944 152.214 209.952H147.627C147.262 209.949 146.912 209.795 146.653 209.522C146.395 209.249 146.25 208.88 146.249 208.495V196.388C146.25 196.003 146.395 195.634 146.654 195.362C146.912 195.09 147.262 194.937 147.627 194.935H159.13C159.496 194.935 159.846 195.088 160.105 195.361C160.364 195.633 160.509 196.003 160.509 196.388V208.495C160.509 208.88 160.364 209.25 160.105 209.523C159.847 209.797 159.496 209.951 159.13 209.952Z" fill="#ADADAD"/>
<path d="M159.13 194.785C159.538 194.785 159.927 194.957 160.213 195.258C160.499 195.559 160.659 195.965 160.659 196.388V208.495C160.659 208.918 160.5 209.325 160.214 209.627C159.964 209.891 159.635 210.056 159.283 210.094L159.13 210.101H154.515L154.505 210.1C154.412 210.087 154.327 210.038 154.267 209.966C154.207 209.893 154.174 209.801 154.174 209.708C154.174 209.614 154.207 209.523 154.267 209.451C154.327 209.379 154.412 209.33 154.505 209.316L154.515 209.314H159.13C159.332 209.314 159.527 209.23 159.672 209.077C159.818 208.924 159.901 208.715 159.901 208.495V196.389L159.897 196.307C159.878 196.117 159.798 195.94 159.671 195.807C159.544 195.673 159.379 195.591 159.205 195.572L159.129 195.568H147.632L147.557 195.572C147.383 195.591 147.219 195.673 147.092 195.807C146.948 195.96 146.866 196.168 146.866 196.388V208.495L146.869 208.576C146.876 208.657 146.894 208.736 146.923 208.811C146.962 208.911 147.02 209.001 147.091 209.077C147.163 209.153 147.248 209.212 147.34 209.253C147.433 209.293 147.532 209.314 147.631 209.314H152.224L152.235 209.316C152.329 209.33 152.413 209.379 152.473 209.451C152.533 209.523 152.566 209.614 152.566 209.708C152.566 209.801 152.533 209.893 152.473 209.966C152.413 210.038 152.329 210.087 152.235 210.1L152.224 210.101H147.626C147.219 210.099 146.83 209.927 146.544 209.625C146.259 209.324 146.099 208.917 146.098 208.495V196.388L146.106 196.23C146.141 195.866 146.295 195.522 146.544 195.259C146.83 194.958 147.22 194.786 147.627 194.785H159.13Z" stroke="#C5C5C5" stroke-opacity="0.4" stroke-width="0.3" stroke-miterlimit="10"/>
<path d="M123.805 179.741C123.838 179.742 123.87 179.748 123.899 179.762C123.929 179.775 123.956 179.794 123.978 179.819L128.837 184.937C128.928 185.03 129.049 185.083 129.176 185.083C129.303 185.083 129.425 185.03 129.516 184.937L134.271 179.928C134.317 179.88 134.38 179.853 134.446 179.853C134.511 179.853 134.574 179.88 134.621 179.928C134.666 179.977 134.692 180.042 134.692 180.11C134.692 180.178 134.666 180.244 134.621 180.292L129.866 185.301C129.776 185.396 129.669 185.472 129.552 185.524C129.434 185.575 129.308 185.602 129.181 185.602C129.053 185.602 128.927 185.575 128.809 185.524C128.692 185.472 128.585 185.396 128.496 185.301L123.637 180.183C123.591 180.135 123.566 180.069 123.566 180.001C123.566 179.933 123.591 179.867 123.637 179.819C123.682 179.772 123.742 179.744 123.805 179.741Z" fill="#ADADAD"/>
<path d="M123.806 179.591C123.86 179.591 123.912 179.604 123.961 179.625C124.009 179.647 124.052 179.678 124.088 179.716L128.945 184.832L128.996 184.875C129.05 184.913 129.113 184.933 129.176 184.933C129.261 184.933 129.345 184.898 129.408 184.832L134.162 179.824L134.163 179.823C134.237 179.747 134.339 179.703 134.446 179.703C134.553 179.703 134.654 179.747 134.728 179.823L134.73 179.825C134.802 179.903 134.841 180.005 134.841 180.111C134.841 180.216 134.802 180.318 134.73 180.395L134.729 180.396L129.974 185.403L129.975 185.404C129.872 185.513 129.748 185.601 129.612 185.661C129.476 185.721 129.329 185.752 129.18 185.752C129.032 185.752 128.885 185.721 128.749 185.661C128.612 185.601 128.489 185.513 128.386 185.404L123.528 180.286L123.527 180.285C123.455 180.208 123.416 180.106 123.416 180.001C123.416 179.896 123.455 179.793 123.527 179.716H123.528C123.599 179.641 123.696 179.596 123.799 179.592L123.806 179.591Z" stroke="#C5C5C5" stroke-opacity="0.4" stroke-width="0.3"/>
<path d="M134.452 149.703C134.42 149.703 134.388 149.696 134.358 149.683C134.329 149.67 134.302 149.65 134.279 149.626L129.421 144.508C129.33 144.415 129.208 144.362 129.081 144.362C128.954 144.362 128.832 144.415 128.742 144.508L123.987 149.517C123.94 149.565 123.877 149.592 123.812 149.592C123.747 149.592 123.684 149.565 123.637 149.517C123.591 149.468 123.566 149.403 123.566 149.335C123.566 149.267 123.591 149.201 123.637 149.153L128.392 144.144C128.481 144.049 128.588 143.973 128.706 143.921C128.823 143.87 128.949 143.843 129.077 143.843C129.204 143.843 129.33 143.87 129.448 143.921C129.566 143.973 129.672 144.049 129.762 144.144L134.621 149.262C134.666 149.31 134.692 149.376 134.692 149.444C134.692 149.512 134.666 149.578 134.621 149.626C134.576 149.673 134.516 149.701 134.452 149.703Z" fill="#ADADAD"/>
<path d="M134.451 149.854C134.398 149.854 134.346 149.841 134.297 149.82C134.249 149.798 134.206 149.767 134.17 149.729L129.313 144.613L129.262 144.57C129.208 144.532 129.145 144.512 129.081 144.512C128.996 144.512 128.913 144.547 128.85 144.613L124.096 149.62L124.095 149.621C124.021 149.698 123.919 149.742 123.812 149.742C123.705 149.741 123.604 149.698 123.529 149.621L123.527 149.62C123.455 149.542 123.416 149.439 123.416 149.334C123.416 149.229 123.455 149.127 123.527 149.05L123.528 149.049L128.283 144.042L128.282 144.041C128.386 143.932 128.509 143.844 128.646 143.784C128.782 143.724 128.929 143.693 129.077 143.693C129.226 143.693 129.373 143.724 129.509 143.784C129.645 143.844 129.768 143.932 129.871 144.041L134.73 149.159L134.731 149.16C134.802 149.237 134.842 149.339 134.842 149.444C134.842 149.549 134.803 149.652 134.731 149.729L134.73 149.729C134.659 149.804 134.562 149.849 134.458 149.853L134.451 149.854Z" stroke="#C5C5C5" stroke-opacity="0.4" stroke-width="0.3"/>
<path d="M129.096 165.321C129.397 165.321 129.641 165.065 129.641 164.748C129.641 164.431 129.397 164.174 129.096 164.174C128.795 164.174 128.552 164.431 128.552 164.748C128.552 165.065 128.795 165.321 129.096 165.321Z" fill="#ADADAD"/>
<path fill-rule="evenodd" clip-rule="evenodd" d="M159.136 233.013C159.136 232.87 159.25 232.754 159.39 232.754H165.728C165.868 232.754 165.982 232.87 165.982 233.013C165.982 233.156 165.868 233.272 165.728 233.272H159.39C159.25 233.272 159.136 233.156 159.136 233.013Z" fill="#ADADAD"/>
<path fill-rule="evenodd" clip-rule="evenodd" d="M159.136 231.722C159.136 231.579 159.25 231.463 159.39 231.463H165.728C165.868 231.463 165.982 231.579 165.982 231.722C165.982 231.865 165.868 231.981 165.728 231.981H159.39C159.25 231.981 159.136 231.865 159.136 231.722Z" fill="#ADADAD"/>
<path fill-rule="evenodd" clip-rule="evenodd" d="M159.136 234.304C159.136 234.161 159.25 234.045 159.39 234.045H165.728C165.868 234.045 165.982 234.161 165.982 234.304C165.982 234.447 165.868 234.563 165.728 234.563H159.39C159.25 234.563 159.136 234.447 159.136 234.304Z" fill="#ADADAD"/>
<path fill-rule="evenodd" clip-rule="evenodd" d="M159.136 235.595C159.136 235.452 159.25 235.336 159.39 235.336H165.728C165.868 235.336 165.982 235.452 165.982 235.595C165.982 235.738 165.868 235.854 165.728 235.854H159.39C159.25 235.854 159.136 235.738 159.136 235.595Z" fill="#ADADAD"/>
<path fill-rule="evenodd" clip-rule="evenodd" d="M159.136 236.886C159.136 236.743 159.25 236.627 159.39 236.627H165.715C165.863 236.627 165.982 236.749 165.982 236.899V238.177C165.982 238.32 165.868 238.436 165.728 238.436C165.588 238.436 165.474 238.32 165.474 238.177V237.145H159.39C159.25 237.145 159.136 237.029 159.136 236.886Z" fill="#ADADAD"/>
</g>
<defs>
<filter id="filter0_d_786_6980" x="70" y="90" width="111.938" height="169.378" filterUnits="userSpaceOnUse" color-interpolation-filters="sRGB">
<feFlood flood-opacity="0" result="BackgroundImageFix"/>
<feColorMatrix in="SourceAlpha" type="matrix" values="0 0 0 0 0 0 0 0 0 0 0 0 0 0 0 0 0 0 127 0" result="hardAlpha"/>
<feOffset dx="-3" dy="3"/>
<feGaussianBlur stdDeviation="2"/>
<feComposite in2="hardAlpha" operator="out"/>
<feColorMatrix type="matrix" values="0 0 0 0 0 0 0 0 0 0 0 0 0 0 0 0 0 0 0.25 0"/>
<feBlend mode="normal" in2="BackgroundImageFix" result="effect1_dropShadow_786_6980"/>
<feBlend mode="normal" in="SourceGraphic" in2="effect1_dropShadow_786_6980" result="shape"/>
</filter>
<clipPath id="clip0_786_6980">
<rect width="103.939" height="161.378" fill="white" transform="translate(77 91)"/>
</clipPath>
</defs>
</svg>
