<svg width="257" height="343" viewBox="0 0 257 343" fill="none" xmlns="http://www.w3.org/2000/svg">
<rect width="257" height="343" fill="white"/>
<g clip-path="url(#clip0_786_6997)" filter="url(#filter0_d_786_6997)">
<rect width="123" height="183" transform="translate(67 80)" fill="white"/>
<rect x="67" y="80" width="123" height="183" fill="black"/>
<path d="M86.3607 92.7026C86.3078 92.7026 86.2549 92.7026 86.2549 92.7026C86.0433 92.6509 85.9904 92.496 85.9375 92.3411C85.9375 92.2895 85.9375 92.2378 85.9375 92.1862C85.9375 91.2568 85.9375 90.3273 85.9375 89.3978C85.9375 89.2946 85.9375 89.1913 85.9904 89.088C86.0433 88.9331 86.1491 88.8815 86.3078 88.8815C86.4665 88.8815 86.6252 88.9847 86.6781 89.1397C86.731 89.2946 86.731 89.4495 86.731 89.6044C86.731 89.8626 86.731 90.1207 86.731 90.3273C86.731 90.3789 86.731 90.4306 86.8369 90.4306C87.313 90.4306 87.842 90.4306 88.3181 90.4306C88.424 90.4306 88.424 90.4306 88.424 90.3273C88.424 90.0175 88.424 89.7077 88.424 89.3978C88.424 89.2946 88.424 89.1913 88.4769 89.088C88.5298 88.9331 88.6885 88.8815 88.8472 88.8815C88.953 88.8815 89.0588 88.9847 89.1117 89.1397C89.1646 89.2946 89.1646 89.4495 89.1646 89.6044C89.1646 89.9658 89.1646 90.3789 89.1646 90.7404C89.1646 91.2568 89.1646 91.7215 89.1646 92.2378C89.1646 92.3411 89.1646 92.4444 89.1117 92.5477C89.0588 92.7026 88.953 92.7542 88.7943 92.7542C88.6356 92.7542 88.5298 92.7026 88.4769 92.5477C88.424 92.3928 88.424 92.2378 88.424 92.0829C88.424 91.928 88.424 91.7215 88.424 91.5666C88.424 91.4117 88.424 91.2568 88.424 91.1018C88.424 91.0502 88.371 91.0502 88.371 91.0502C88.1065 91.0502 87.842 91.0502 87.5775 91.0502C87.313 91.0502 87.0485 91.0502 86.8369 91.0502C86.784 91.0502 86.731 91.0502 86.731 91.1018C86.731 91.3084 86.731 91.5149 86.731 91.7215C86.731 91.928 86.731 92.1346 86.731 92.3411C86.6781 92.496 86.5723 92.6509 86.3607 92.7026Z" fill="#C5C5C5" fill-opacity="0.3"/>
<path d="M79.3245 89.2429C79.3245 89.3462 79.3245 89.3978 79.3245 89.5011C79.3245 89.5527 79.3245 89.5527 79.2716 89.5527C78.9542 89.7593 78.7955 90.0691 78.7426 90.4306C78.6368 90.8437 78.6897 91.2568 78.9542 91.6698C79.1129 91.928 79.3774 92.0829 79.6948 92.1346C80.2768 92.1862 80.7 91.8764 80.8058 91.4117C80.9116 91.0502 80.9645 90.6371 80.8058 90.2757C80.7529 90.0691 80.5942 89.9142 80.4355 89.7593C80.3297 89.656 80.2768 89.5527 80.2768 89.4495C80.2768 89.3462 80.2768 89.1913 80.2768 89.088C80.2768 88.9847 80.2768 88.9847 80.3826 89.0364C80.7 89.088 80.9645 89.2429 81.1761 89.5011C81.4406 89.8109 81.5465 90.1724 81.5994 90.5338C81.6523 90.8953 81.5994 91.2568 81.4935 91.6182C81.229 92.2378 80.8058 92.5993 80.1181 92.7026C79.6948 92.7542 79.2716 92.7542 78.9013 92.5993C78.3723 92.3928 78.1077 91.9797 77.949 91.5149C77.8961 90.8437 77.8961 90.3273 78.1606 89.8109C78.3194 89.5527 78.4781 89.2946 78.7426 89.088C78.9013 88.9847 79.06 88.9331 79.2187 88.9331C79.2716 88.9331 79.3245 88.9331 79.3245 88.9847C79.3245 89.088 79.3245 89.1397 79.3245 89.2429Z" fill="#C5C5C5" fill-opacity="0.3"/>
<path d="M76.0975 92.7026C76.0446 92.7026 75.9388 92.7026 75.8859 92.7026C75.5684 92.7026 75.251 92.5993 74.9865 92.4444C74.722 92.2895 74.5633 92.0313 74.5104 91.7215C74.4575 91.5149 74.6162 91.36 74.7749 91.3084C74.8807 91.3084 74.9336 91.3084 74.9865 91.36C75.0394 91.4117 75.0923 91.4633 75.0923 91.5149C75.1452 91.6182 75.1981 91.7215 75.251 91.8248C75.3568 92.0313 75.5155 92.1346 75.7801 92.1862C75.9917 92.2378 76.2562 92.1862 76.4678 92.0829C76.5736 92.0313 76.6794 91.928 76.7323 91.8248C76.7852 91.6698 76.7852 91.5666 76.6794 91.4633C76.5736 91.3084 76.362 91.2051 76.2033 91.1535C75.9388 91.0502 75.6742 91.0502 75.4097 90.9469C75.1981 90.8953 74.9865 90.792 74.8278 90.6371C74.4575 90.2757 74.4575 89.7077 74.7749 89.3462C74.8807 89.2429 75.0394 89.1397 75.1981 89.088C75.7801 88.8298 76.362 88.8298 76.891 89.1397C77.1026 89.2946 77.2613 89.4495 77.3142 89.7077C77.3672 89.9142 77.2613 90.0691 77.1026 90.1207C76.9968 90.1724 76.891 90.1207 76.8381 90.0691C76.7323 89.9658 76.6794 89.8626 76.6265 89.7593C76.6265 89.7077 76.5736 89.7077 76.5736 89.656C76.4678 89.5011 76.3091 89.3978 76.1504 89.3462C75.8859 89.2946 75.6742 89.3462 75.4626 89.5011C75.251 89.656 75.251 89.9142 75.4626 90.0691C75.6213 90.1724 75.833 90.224 75.9917 90.2757C76.3091 90.3789 76.6265 90.4306 76.891 90.5855C77.1555 90.6887 77.3671 90.8437 77.473 91.1018C77.6317 91.5149 77.5259 92.1862 76.8381 92.496C76.5736 92.5993 76.3091 92.6509 76.0975 92.7026Z" fill="#C5C5C5" fill-opacity="0.3"/>
<path d="M90.0111 91.2051C90.0111 90.8437 90.0111 90.5338 90.0111 90.1724C90.0111 89.9142 89.9582 89.7077 90.0111 89.4495C90.0111 89.2946 90.0111 89.1397 90.064 89.0364C90.1169 88.8815 90.2227 88.8298 90.3814 88.8298C90.5401 88.8298 90.6459 88.8815 90.7517 89.0364C90.8046 89.1913 90.8575 89.3462 90.8575 89.4495C90.8575 89.7077 90.8575 89.9658 90.8575 90.224C90.8575 90.5338 90.8575 90.8437 90.8575 91.1535C90.8575 91.5149 90.8575 91.8764 90.8575 92.1862C90.8575 92.2895 90.8575 92.3411 90.8046 92.4444C90.7517 92.5477 90.6459 92.6509 90.4872 92.6509C90.2227 92.6509 90.064 92.5477 90.064 92.2378C90.0111 91.928 90.0111 91.5666 90.0111 91.2051Z" fill="#C5C5C5" fill-opacity="0.3"/>
<path d="M90.3814 86.8676C89.8524 86.8676 89.3762 87.0225 89.0059 87.3324C88.8472 87.4873 88.8472 87.4356 88.7414 87.3324C88.5827 87.2291 88.6356 87.1775 88.7414 87.0742C89.0588 86.816 89.4291 86.6095 89.8524 86.5578C90.6988 86.4029 91.3866 86.6095 92.0214 87.1258C92.1272 87.1775 92.1272 87.2291 92.0214 87.2807C91.9685 87.3324 91.9685 87.3324 91.9156 87.384C91.8627 87.4356 91.8098 87.4356 91.7569 87.384C91.704 87.3324 91.6511 87.3324 91.5982 87.2807C91.2808 87.0225 90.9633 86.9193 90.5401 86.8676C90.4872 86.8676 90.4872 86.8676 90.4343 86.8676C90.4343 86.9193 90.4343 86.9193 90.3814 86.8676Z" fill="#C5C5C5" fill-opacity="0.3"/>
<path d="M80.1181 88.6749C80.1181 88.8815 80.1181 89.1397 80.1181 89.3462C80.1181 89.5528 80.1181 89.7593 80.0652 89.9658C80.0652 90.0691 80.0123 90.1208 79.9594 90.224C79.9065 90.2757 79.8536 90.2757 79.7478 90.2757C79.642 90.2757 79.642 90.1724 79.5891 90.1208C79.5362 90.0691 79.5362 89.9658 79.5362 89.9142C79.5362 89.5011 79.4833 89.088 79.4833 88.6749C79.4833 88.5717 79.4833 88.52 79.5362 88.4168C79.5891 88.2618 79.6949 88.2102 79.8536 88.2102C79.9594 88.2102 80.0652 88.3135 80.1181 88.4168C80.1181 88.52 80.171 88.6233 80.1181 88.6749Z" fill="#C5C5C5" fill-opacity="0.3"/>
<path d="M90.2755 87.2808C90.6987 87.2808 91.0691 87.384 91.3865 87.6422C91.5452 87.7455 91.5452 87.8488 91.3865 87.952C91.3336 88.0037 91.2807 88.0037 91.2278 87.952C91.122 87.8488 91.0162 87.7971 90.8575 87.7455C90.3813 87.5906 89.9581 87.5906 89.5349 87.9004C89.482 87.952 89.4291 87.952 89.4291 88.0037C89.3762 88.0037 89.3762 88.0037 89.3233 88.0037C89.2704 87.952 89.2175 87.9004 89.1646 87.8488C89.1117 87.7971 89.1117 87.7455 89.1646 87.7455C89.4291 87.5389 89.6936 87.384 90.0639 87.3324C90.1168 87.2808 90.2226 87.2808 90.2755 87.2808Z" fill="#C5C5C5" fill-opacity="0.3"/>
<path d="M90.3284 88.0553C90.4872 88.0553 90.593 88.0553 90.7517 88.1586C90.8046 88.1586 90.8046 88.2102 90.8046 88.2102C90.9104 88.2618 90.9104 88.3651 90.8046 88.4684C90.6988 88.5717 90.6988 88.5717 90.5401 88.52C90.3284 88.4168 90.1697 88.4168 89.9581 88.52C89.9052 88.5717 89.8523 88.5717 89.7994 88.52C89.7465 88.4684 89.7465 88.4684 89.6936 88.4168C89.6407 88.3651 89.6407 88.3135 89.6936 88.2618C89.9581 88.1069 90.1168 88.1069 90.3284 88.0553Z" fill="#C5C5C5" fill-opacity="0.3"/>
<path d="M94.931 92.2378C94.8781 92.2378 94.8781 92.1862 94.931 92.2378C94.8781 91.9797 94.7723 91.7731 94.6665 91.5666C94.3491 90.792 94.0316 90.0691 93.7142 89.2946C93.6613 89.1913 93.6084 89.088 93.5555 89.0364C93.3439 88.7266 92.9207 88.7266 92.7091 88.9847C92.6032 89.088 92.5503 89.1913 92.4974 89.3462C92.2329 90.1207 91.8626 90.8953 91.5981 91.6698C91.4923 91.8764 91.4394 92.0829 91.3865 92.2895C91.3865 92.3928 91.3865 92.496 91.4923 92.5993C91.5452 92.6509 91.5981 92.6509 91.651 92.7026C91.7039 92.7026 91.7039 92.7026 91.7568 92.7026C91.8626 92.7026 91.9155 92.6509 91.9684 92.5993C92.0213 92.5477 92.0742 92.4444 92.1271 92.3411C92.18 92.1862 92.2329 92.0313 92.2858 91.8764C92.2858 91.8248 92.3387 91.7731 92.3916 91.7731C92.8149 91.7731 93.2381 91.7731 93.6613 91.7731C93.7142 91.7731 93.7142 91.7731 93.7671 91.7731C93.82 91.7731 93.8729 91.8248 93.8729 91.8764C93.8729 91.928 93.9258 91.9797 93.9258 92.0313C93.9787 92.1862 94.0316 92.3411 94.1374 92.496C94.1903 92.5993 94.2432 92.7026 94.402 92.7026C94.4549 92.7026 94.5078 92.7026 94.5607 92.7026C94.7723 92.7026 94.8252 92.5993 94.8252 92.4444V92.3928C94.931 92.3411 94.931 92.3411 94.931 92.2378C94.931 92.2895 94.931 92.2895 94.931 92.2378ZM93.5555 91.2051C93.2381 91.2051 92.9736 91.2051 92.6562 91.2051C92.5503 91.2051 92.5503 91.2051 92.6033 91.1018C92.762 90.6887 92.8678 90.224 93.0794 89.8109C93.0794 89.7593 93.0794 89.7593 93.1323 89.7077C93.2381 89.9142 93.291 90.1207 93.3968 90.2757C93.5026 90.5338 93.6084 90.792 93.6613 91.0502C93.6613 91.1535 93.6613 91.2051 93.5555 91.2051Z" fill="#C5C5C5" fill-opacity="0.3"/>
<path d="M85.2497 89.8109C85.1968 89.3978 84.9323 89.088 84.5091 88.9331C84.2975 88.8815 84.0329 88.8815 83.8213 88.8815C83.6097 88.8815 83.451 88.8815 83.2394 88.8815C83.0807 88.8815 82.922 88.8815 82.7633 88.8815C82.7104 88.8815 82.6575 88.8815 82.6046 88.9331C82.4988 88.9847 82.3929 89.0364 82.34 89.1913C82.2871 89.2946 82.34 89.4495 82.34 89.5527C82.34 90.2757 82.34 90.9986 82.34 91.7215C82.34 91.928 82.34 92.0829 82.34 92.2895C82.34 92.4444 82.3929 92.5993 82.5517 92.6509C82.6046 92.6509 82.6575 92.6509 82.7104 92.6509C82.8691 92.5993 82.9749 92.496 83.0278 92.3411C83.0807 92.2378 83.0807 92.0829 83.0807 91.9797C83.0807 91.7215 83.0807 91.5149 83.0807 91.2568C83.0807 91.1535 83.0807 91.1535 83.1865 91.1535C83.3981 91.1535 83.5568 91.1535 83.7684 91.1535C83.98 91.1535 84.1917 91.1535 84.4033 91.1018C84.7207 90.9986 84.9323 90.8953 85.0381 90.5855C85.2497 90.3273 85.2497 90.0691 85.2497 89.8109ZM84.0858 90.5855C83.8742 90.6371 83.6626 90.6371 83.451 90.6371C83.3452 90.6371 83.2923 90.6371 83.1865 90.6371C83.1336 90.6371 83.1336 90.6371 83.1336 90.5855C83.1336 90.224 83.1336 89.9142 83.1336 89.5527C83.1336 89.5011 83.1336 89.5011 83.1865 89.5011C83.451 89.5011 83.7155 89.5011 83.9271 89.5011C84.0858 89.5011 84.2446 89.5527 84.3504 89.7077C84.6149 89.9658 84.4562 90.4822 84.0858 90.5855Z" fill="#C5C5C5" fill-opacity="0.3"/>
<path fill-rule="evenodd" clip-rule="evenodd" d="M89.8421 240.087L87.7819 241.26C87.2762 241.548 86.7014 241.7 86.116 241.7H85.3007V244.772H86.116C86.7014 244.772 87.2762 244.924 87.7819 245.212L89.8421 246.385V240.087ZM89.7653 239.451C90.066 239.28 90.4435 239.492 90.4435 239.832V246.64C90.4435 246.98 90.066 247.192 89.7653 247.021L87.479 245.719C87.0653 245.484 86.5949 245.36 86.116 245.36H85.3007C84.9685 245.36 84.6992 245.097 84.6992 244.772V241.7C84.6992 241.375 84.9685 241.112 85.3007 241.112H86.116C86.5949 241.112 87.0653 240.988 87.479 240.753L89.7653 239.451Z" fill="#C5C5C5" fill-opacity="0.4"/>
<path fill-rule="evenodd" clip-rule="evenodd" d="M91.1278 242.016C91.1278 241.854 91.2625 241.722 91.4285 241.722C92.2965 241.722 93.015 242.392 93.015 243.236C93.015 244.08 92.2965 244.75 91.4285 244.75C91.2625 244.75 91.1278 244.618 91.1278 244.456C91.1278 244.294 91.2625 244.162 91.4285 244.162C91.9808 244.162 92.4135 243.74 92.4135 243.236C92.4135 242.732 91.9808 242.31 91.4285 242.31C91.2625 242.31 91.1278 242.178 91.1278 242.016Z" fill="#C5C5C5" fill-opacity="0.4"/>
<path fill-rule="evenodd" clip-rule="evenodd" d="M91.1278 240.796C91.1278 240.634 91.2625 240.502 91.4285 240.502C93.0065 240.502 94.3007 241.718 94.3007 243.236C94.3007 244.754 93.0065 245.97 91.4285 245.97C91.2625 245.97 91.1278 245.838 91.1278 245.676C91.1278 245.514 91.2625 245.382 91.4285 245.382C92.6909 245.382 93.6992 244.413 93.6992 243.236C93.6992 242.059 92.6909 241.09 91.4285 241.09C91.2625 241.09 91.1278 240.958 91.1278 240.796Z" fill="#C5C5C5" fill-opacity="0.4"/>
<path fill-rule="evenodd" clip-rule="evenodd" d="M127.716 242.867C127.551 242.852 127.429 242.709 127.445 242.547C127.473 242.261 127.546 241.843 127.826 241.476C128.116 241.097 128.596 240.815 129.35 240.747C129.515 240.733 129.662 240.852 129.677 241.013C129.692 241.175 129.57 241.318 129.405 241.333C128.791 241.388 128.479 241.604 128.308 241.828C128.127 242.064 128.068 242.351 128.044 242.602C128.028 242.764 127.882 242.882 127.716 242.867Z" fill="#C5C5C5" fill-opacity="0.4"/>
<path fill-rule="evenodd" clip-rule="evenodd" d="M129.245 240.163C127.919 240.163 126.846 241.212 126.846 242.504C126.846 243.213 126.992 243.775 127.278 244.158C127.315 244.209 127.355 244.262 127.397 244.317C127.576 244.553 127.786 244.83 127.953 245.115C128.164 245.477 128.346 245.911 128.346 246.412V247.041H130.143V246.444C130.143 245.936 130.33 245.497 130.545 245.133C130.705 244.863 130.907 244.594 131.08 244.364C131.131 244.296 131.18 244.231 131.224 244.171C131.504 243.788 131.643 243.224 131.643 242.504C131.643 241.212 130.57 240.163 129.245 240.163ZM126.245 242.504C126.245 240.887 127.588 239.576 129.245 239.576C130.901 239.576 132.245 240.887 132.245 242.504C132.245 243.281 132.097 243.988 131.713 244.512C131.66 244.585 131.606 244.657 131.551 244.73C131.157 245.256 130.745 245.805 130.745 246.444V247.334C130.745 247.496 130.61 247.628 130.444 247.628H128.045C127.879 247.628 127.745 247.496 127.745 247.334V246.412C127.745 245.764 127.323 245.208 126.923 244.679C126.879 244.62 126.835 244.562 126.791 244.504C126.401 243.981 126.245 243.277 126.245 242.504Z" fill="#C5C5C5" fill-opacity="0.4"/>
<path d="M228.165 90.1216L181.271 306.025L97.75 35.6643L228.165 90.1216Z" fill="#282828"/>
<path d="M140.899 142.952H130.991C130.86 142.952 130.734 142.899 130.641 142.804C130.549 142.709 130.497 142.581 130.497 142.447C130.497 142.313 130.549 142.184 130.641 142.089C130.734 141.995 130.86 141.941 130.991 141.941H140.899C141.42 141.944 141.922 141.738 142.297 141.367C142.672 140.997 142.89 140.491 142.905 139.958V114.552C142.905 114.283 142.853 114.018 142.752 113.77C142.651 113.522 142.503 113.297 142.316 113.109C142.13 112.92 141.908 112.771 141.665 112.67C141.422 112.569 141.161 112.518 140.899 112.52H116.11C115.583 112.52 115.078 112.734 114.705 113.115C114.333 113.496 114.123 114.013 114.123 114.552V139.958C114.123 140.497 114.333 141.013 114.705 141.394C115.078 141.775 115.583 141.989 116.11 141.989H126.028C126.159 141.989 126.285 142.042 126.377 142.137C126.47 142.232 126.522 142.36 126.522 142.495C126.522 142.629 126.47 142.757 126.377 142.852C126.285 142.947 126.159 143 126.028 143H116.11C115.32 143 114.562 142.68 114.003 142.11C113.443 141.539 113.127 140.765 113.125 139.958V114.552C113.127 113.743 113.443 112.968 114.002 112.397C114.561 111.825 115.319 111.503 116.11 111.5H140.899C141.689 111.503 142.446 111.825 143.004 112.397C143.562 112.969 143.875 113.744 143.875 114.552V139.958C143.863 140.756 143.544 141.518 142.987 142.078C142.43 142.638 141.68 142.952 140.899 142.952Z" fill="#767272"/>
<path d="M140.899 213.452H130.991C130.86 213.452 130.734 213.399 130.641 213.304C130.549 213.209 130.497 213.081 130.497 212.947C130.497 212.813 130.549 212.684 130.641 212.589C130.734 212.495 130.86 212.441 130.991 212.441H140.899C141.42 212.444 141.922 212.238 142.297 211.867C142.672 211.497 142.89 210.991 142.905 210.458V185.052C142.905 184.783 142.853 184.518 142.752 184.27C142.651 184.022 142.503 183.797 142.316 183.609C142.13 183.42 141.908 183.271 141.665 183.17C141.422 183.069 141.161 183.018 140.899 183.02H116.11C115.583 183.02 115.078 183.234 114.705 183.615C114.333 183.996 114.123 184.513 114.123 185.052V210.458C114.123 210.997 114.333 211.513 114.705 211.894C115.078 212.275 115.583 212.489 116.11 212.489H126.028C126.159 212.489 126.285 212.542 126.377 212.637C126.47 212.732 126.522 212.86 126.522 212.995C126.522 213.129 126.47 213.257 126.377 213.352C126.285 213.447 126.159 213.5 126.028 213.5H116.11C115.32 213.5 114.562 213.18 114.003 212.61C113.443 212.039 113.127 211.265 113.125 210.458V185.052C113.127 184.243 113.443 183.468 114.002 182.897C114.561 182.325 115.319 182.003 116.11 182H140.899C141.689 182.003 142.446 182.325 143.004 182.897C143.562 183.469 143.875 184.244 143.875 185.052V210.458C143.863 211.256 143.544 212.018 142.987 212.578C142.43 213.138 141.68 213.452 140.899 213.452Z" fill="#767272"/>
<path fill-rule="evenodd" clip-rule="evenodd" d="M164.199 241.04C164.199 240.878 164.334 240.746 164.5 240.746H172C172.166 240.746 172.301 240.878 172.301 241.04C172.301 241.202 172.166 241.334 172 241.334H164.5C164.334 241.334 164.199 241.202 164.199 241.04Z" fill="#C5C5C5" fill-opacity="0.4"/>
<path fill-rule="evenodd" clip-rule="evenodd" d="M164.199 239.576C164.199 239.414 164.334 239.282 164.5 239.282H172C172.166 239.282 172.301 239.414 172.301 239.576C172.301 239.738 172.166 239.87 172 239.87H164.5C164.334 239.87 164.199 239.738 164.199 239.576Z" fill="#C5C5C5" fill-opacity="0.4"/>
<path fill-rule="evenodd" clip-rule="evenodd" d="M164.199 242.504C164.199 242.342 164.334 242.21 164.5 242.21H172C172.166 242.21 172.301 242.342 172.301 242.504C172.301 242.666 172.166 242.798 172 242.798H164.5C164.334 242.798 164.199 242.666 164.199 242.504Z" fill="#C5C5C5" fill-opacity="0.4"/>
<path fill-rule="evenodd" clip-rule="evenodd" d="M164.199 243.968C164.199 243.806 164.334 243.674 164.5 243.674H172C172.166 243.674 172.301 243.806 172.301 243.968C172.301 244.13 172.166 244.262 172 244.262H164.5C164.334 244.262 164.199 244.13 164.199 243.968Z" fill="#C5C5C5" fill-opacity="0.4"/>
<path fill-rule="evenodd" clip-rule="evenodd" d="M164.199 245.432C164.199 245.27 164.334 245.138 164.5 245.138H171.985C172.159 245.138 172.301 245.276 172.301 245.447V246.896C172.301 247.058 172.166 247.19 172 247.19C171.834 247.19 171.699 247.058 171.699 246.896V245.726H164.5C164.334 245.726 164.199 245.594 164.199 245.432Z" fill="#C5C5C5" fill-opacity="0.4"/>
</g>
<defs>
<filter id="filter0_d_786_6997" x="60" y="79" width="131" height="191" filterUnits="userSpaceOnUse" color-interpolation-filters="sRGB">
<feFlood flood-opacity="0" result="BackgroundImageFix"/>
<feColorMatrix in="SourceAlpha" type="matrix" values="0 0 0 0 0 0 0 0 0 0 0 0 0 0 0 0 0 0 127 0" result="hardAlpha"/>
<feOffset dx="-3" dy="3"/>
<feGaussianBlur stdDeviation="2"/>
<feComposite in2="hardAlpha" operator="out"/>
<feColorMatrix type="matrix" values="0 0 0 0 0 0 0 0 0 0 0 0 0 0 0 0 0 0 0.25 0"/>
<feBlend mode="normal" in2="BackgroundImageFix" result="effect1_dropShadow_786_6997"/>
<feBlend mode="normal" in="SourceGraphic" in2="effect1_dropShadow_786_6997" result="shape"/>
</filter>
<clipPath id="clip0_786_6997">
<rect width="123" height="183" fill="white" transform="translate(67 80)"/>
</clipPath>
</defs>
</svg>
