<svg width="257" height="343" viewBox="0 0 257 343" fill="none" xmlns="http://www.w3.org/2000/svg">
<rect width="257" height="343" fill="white"/>
<g clip-path="url(#clip0_786_6990)" filter="url(#filter0_d_786_6990)">
<rect width="121" height="185" transform="translate(68 79)" fill="white"/>
<rect x="68" y="79" width="121" height="185" fill="black"/>
<path d="M87.0457 91.8414C86.9937 91.8414 86.9417 91.8414 86.9417 91.8414C86.7335 91.7892 86.6814 91.6326 86.6294 91.476C86.6294 91.4238 86.6294 91.3716 86.6294 91.3194C86.6294 90.3798 86.6294 89.4402 86.6294 88.5006C86.6294 88.3962 86.6294 88.2918 86.6814 88.1874C86.7335 88.0308 86.8376 87.9786 86.9937 87.9786C87.1498 87.9786 87.306 88.083 87.358 88.2396C87.41 88.3962 87.41 88.5528 87.41 88.7094C87.41 88.9704 87.41 89.2314 87.41 89.4402C87.41 89.4924 87.41 89.5446 87.5141 89.5446C87.9825 89.5446 88.5029 89.5446 88.9713 89.5446C89.0754 89.5446 89.0754 89.5446 89.0754 89.4402C89.0754 89.127 89.0754 88.8138 89.0754 88.5006C89.0754 88.3962 89.0754 88.2918 89.1275 88.1874C89.1795 88.0308 89.3356 87.9786 89.4918 87.9786C89.5958 87.9786 89.6999 88.083 89.752 88.2396C89.804 88.3962 89.804 88.5528 89.804 88.7094C89.804 89.0748 89.804 89.4924 89.804 89.8578C89.804 90.3798 89.804 90.8496 89.804 91.3716C89.804 91.476 89.804 91.5804 89.752 91.6848C89.6999 91.8414 89.5958 91.8936 89.4397 91.8936C89.2836 91.8936 89.1795 91.8414 89.1275 91.6848C89.0754 91.5282 89.0754 91.3716 89.0754 91.215C89.0754 91.0584 89.0754 90.8496 89.0754 90.693C89.0754 90.5364 89.0754 90.3798 89.0754 90.2232C89.0754 90.171 89.0234 90.171 89.0234 90.171C88.7632 90.171 88.5029 90.171 88.2427 90.171C87.9825 90.171 87.7223 90.171 87.5141 90.171C87.4621 90.171 87.41 90.171 87.41 90.2232C87.41 90.432 87.41 90.6408 87.41 90.8496C87.41 91.0584 87.41 91.2672 87.41 91.476C87.358 91.6326 87.2539 91.7892 87.0457 91.8414Z" fill="#C5C5C5" fill-opacity="0.3"/>
<path d="M80.124 88.344C80.124 88.4484 80.124 88.5006 80.124 88.605C80.124 88.6572 80.124 88.6572 80.0719 88.6572C79.7597 88.866 79.6035 89.1792 79.5515 89.5446C79.4474 89.9622 79.4994 90.3798 79.7597 90.7974C79.9158 91.0584 80.176 91.215 80.4883 91.2672C81.0607 91.3194 81.4771 91.0062 81.5812 90.5364C81.6853 90.171 81.7373 89.7534 81.5812 89.388C81.5291 89.1792 81.373 89.0226 81.2169 88.866C81.1128 88.7616 81.0607 88.6572 81.0607 88.5528C81.0607 88.4484 81.0607 88.2918 81.0607 88.1874C81.0607 88.083 81.0607 88.083 81.1648 88.1352C81.4771 88.1874 81.7373 88.344 81.9455 88.605C82.2057 88.9182 82.3098 89.2836 82.3618 89.649C82.4139 90.0144 82.3618 90.3798 82.2577 90.7452C81.9975 91.3716 81.5812 91.737 80.9046 91.8414C80.4883 91.8936 80.0719 91.8936 79.7076 91.737C79.1872 91.5282 78.927 91.1106 78.7708 90.6408C78.7188 89.9622 78.7188 89.4402 78.979 88.9182C79.1351 88.6572 79.2913 88.3962 79.5515 88.1874C79.7076 88.083 79.8638 88.0308 80.0199 88.0308C80.0719 88.0308 80.124 88.0308 80.124 88.083C80.124 88.1874 80.124 88.2396 80.124 88.344Z" fill="#C5C5C5" fill-opacity="0.3"/>
<path d="M76.9494 91.8414C76.8974 91.8414 76.7933 91.8414 76.7413 91.8414C76.429 91.8414 76.1167 91.737 75.8565 91.5804C75.5963 91.4238 75.4402 91.1628 75.3881 90.8496C75.3361 90.6408 75.4922 90.4842 75.6484 90.432C75.7524 90.432 75.8045 90.432 75.8565 90.4842C75.9086 90.5364 75.9606 90.5886 75.9606 90.6408C76.0127 90.7452 76.0647 90.8496 76.1167 90.954C76.2208 91.1628 76.377 91.2672 76.6372 91.3194C76.8453 91.3716 77.1056 91.3194 77.3137 91.215C77.4178 91.1628 77.5219 91.0584 77.5739 90.954C77.626 90.7974 77.626 90.693 77.5219 90.5886C77.4178 90.432 77.2096 90.3276 77.0535 90.2754C76.7933 90.171 76.5331 90.171 76.2729 90.0666C76.0647 90.0144 75.8565 89.91 75.7004 89.7534C75.3361 89.388 75.3361 88.8138 75.6484 88.4484C75.7524 88.344 75.9086 88.2396 76.0647 88.1874C76.6372 87.9263 77.2096 87.9264 77.7301 88.2396C77.9382 88.3962 78.0944 88.5528 78.1464 88.8138C78.1985 89.0226 78.0944 89.1792 77.9382 89.2314C77.8342 89.2836 77.7301 89.2314 77.678 89.1792C77.5739 89.0748 77.5219 88.9704 77.4699 88.866C77.4699 88.8138 77.4178 88.8138 77.4178 88.7616C77.3137 88.605 77.1576 88.5006 77.0015 88.4484C76.7413 88.3962 76.5331 88.4484 76.3249 88.605C76.1167 88.7616 76.1167 89.0226 76.3249 89.1792C76.481 89.2836 76.6892 89.3358 76.8453 89.388C77.1576 89.4924 77.4699 89.5446 77.7301 89.7012C77.9903 89.8056 78.1985 89.9622 78.3025 90.2232C78.4587 90.6408 78.3546 91.3194 77.678 91.6326C77.4178 91.737 77.1576 91.7892 76.9494 91.8414Z" fill="#C5C5C5" fill-opacity="0.3"/>
<path d="M90.6367 90.3276C90.6367 89.9622 90.6367 89.649 90.6367 89.2836C90.6367 89.0226 90.5846 88.8138 90.6367 88.5528C90.6367 88.3962 90.6367 88.2396 90.6887 88.1352C90.7407 87.9786 90.8448 87.9264 91.001 87.9264C91.1571 87.9264 91.2612 87.9786 91.3653 88.1352C91.4173 88.2918 91.4693 88.4484 91.4693 88.5528C91.4693 88.8138 91.4693 89.0748 91.4693 89.3358C91.4693 89.649 91.4693 89.9622 91.4693 90.2754C91.4693 90.6408 91.4693 91.0062 91.4693 91.3195C91.4693 91.4239 91.4693 91.4761 91.4173 91.5805C91.3653 91.6849 91.2612 91.7893 91.105 91.7893C90.8448 91.7893 90.6887 91.6849 90.6887 91.3717C90.6367 91.0584 90.6367 90.693 90.6367 90.3276Z" fill="#C5C5C5" fill-opacity="0.3"/>
<path d="M91.0009 85.9427C90.4805 85.9427 90.0121 86.0993 89.6478 86.4126C89.4917 86.5692 89.4917 86.517 89.3876 86.4126C89.2315 86.3081 89.2835 86.2559 89.3876 86.1515C89.6999 85.8905 90.0642 85.6817 90.4805 85.6295C91.3132 85.4729 91.9898 85.6817 92.6143 86.2037C92.7184 86.2559 92.7184 86.3081 92.6143 86.3603C92.5622 86.4126 92.5622 86.4126 92.5102 86.4648C92.4581 86.517 92.4061 86.517 92.3541 86.4648C92.302 86.4126 92.25 86.4126 92.1979 86.3603C91.8857 86.0993 91.5734 85.9949 91.1571 85.9427C91.105 85.9427 91.105 85.9427 91.053 85.9427C91.053 85.9949 91.053 85.9949 91.0009 85.9427Z" fill="#C5C5C5" fill-opacity="0.3"/>
<path d="M80.9048 87.7698C80.9048 87.9786 80.9048 88.2396 80.9048 88.4484C80.9048 88.6572 80.9048 88.866 80.8527 89.0748C80.8527 89.1792 80.8007 89.2314 80.7487 89.3358C80.6966 89.388 80.6446 89.388 80.5405 89.388C80.4364 89.388 80.4364 89.2836 80.3844 89.2314C80.3323 89.1792 80.3323 89.0748 80.3323 89.0226C80.3323 88.605 80.2803 88.1874 80.2803 87.7698C80.2803 87.6654 80.2803 87.6132 80.3323 87.5088C80.3844 87.3522 80.4884 87.3 80.6446 87.3C80.7487 87.3 80.8527 87.4044 80.9048 87.5088C80.9048 87.6132 80.9568 87.7176 80.9048 87.7698Z" fill="#C5C5C5" fill-opacity="0.3"/>
<path d="M90.8971 86.3604C91.3134 86.3604 91.6777 86.4648 91.99 86.7258C92.1461 86.8302 92.1461 86.9346 91.99 87.039C91.9379 87.0912 91.8859 87.0912 91.8338 87.039C91.7298 86.9346 91.6257 86.8824 91.4695 86.8302C91.0012 86.6736 90.5848 86.6736 90.1685 86.9868C90.1164 87.039 90.0644 87.039 90.0644 87.0912C90.0123 87.0912 90.0123 87.0912 89.9603 87.0912C89.9083 87.039 89.8562 86.9868 89.8042 86.9346C89.7521 86.8824 89.7521 86.8302 89.8042 86.8302C90.0644 86.6214 90.3246 86.4648 90.6889 86.4126C90.7409 86.3604 90.845 86.3604 90.8971 86.3604Z" fill="#C5C5C5" fill-opacity="0.3"/>
<path d="M90.9489 87.1434C91.1051 87.1434 91.2092 87.1434 91.3653 87.2478C91.4173 87.2478 91.4173 87.3 91.4173 87.3C91.5214 87.3522 91.5214 87.4566 91.4173 87.561C91.3132 87.6654 91.3132 87.6654 91.1571 87.6132C90.9489 87.5088 90.7928 87.5088 90.5846 87.6132C90.5326 87.6654 90.4806 87.6654 90.4285 87.6132C90.3765 87.561 90.3765 87.561 90.3244 87.5088C90.2724 87.4566 90.2724 87.4044 90.3244 87.3522C90.5846 87.1956 90.7408 87.1956 90.9489 87.1434Z" fill="#C5C5C5" fill-opacity="0.3"/>
<path d="M95.4766 91.3716C95.4246 91.3716 95.4246 91.3194 95.4766 91.3716C95.4246 91.1106 95.3205 90.9018 95.2164 90.693C94.9042 89.91 94.5919 89.1792 94.2796 88.3962C94.2276 88.2918 94.1756 88.1874 94.1235 88.1352C93.9153 87.822 93.499 87.822 93.2908 88.083C93.1867 88.1874 93.1347 88.2918 93.0827 88.4484C92.8224 89.2314 92.4581 90.0144 92.1979 90.7974C92.0938 91.0062 92.0418 91.215 91.9897 91.4238C91.9897 91.5282 91.9897 91.6326 92.0938 91.737C92.1459 91.7892 92.1979 91.7892 92.25 91.8414C92.302 91.8414 92.302 91.8414 92.354 91.8414C92.4581 91.8414 92.5102 91.7892 92.5622 91.737C92.6143 91.6848 92.6663 91.5804 92.7183 91.476C92.7704 91.3194 92.8224 91.1628 92.8745 91.0062C92.8745 90.954 92.9265 90.9018 92.9786 90.9018C93.3949 90.9018 93.8113 90.9018 94.2276 90.9018C94.2796 90.9018 94.2796 90.9018 94.3317 90.9018C94.3837 90.9018 94.4358 90.954 94.4358 91.0062C94.4358 91.0584 94.4878 91.1106 94.4878 91.1628C94.5399 91.3194 94.5919 91.476 94.696 91.6326C94.748 91.737 94.8001 91.8414 94.9562 91.8414C95.0082 91.8414 95.0603 91.8414 95.1123 91.8414C95.3205 91.8414 95.3725 91.737 95.3725 91.5804V91.5282C95.4766 91.476 95.4766 91.476 95.4766 91.3716C95.4766 91.4238 95.4766 91.4238 95.4766 91.3716ZM94.1235 90.3276C93.8113 90.3276 93.551 90.3276 93.2388 90.3276C93.1347 90.3276 93.1347 90.3276 93.1867 90.2232C93.3429 89.8056 93.447 89.3358 93.6551 88.9182C93.6551 88.866 93.6551 88.866 93.7072 88.8138C93.8113 89.0226 93.8633 89.2314 93.9674 89.388C94.0715 89.649 94.1756 89.91 94.2276 90.171C94.2276 90.2754 94.2276 90.3276 94.1235 90.3276Z" fill="#C5C5C5" fill-opacity="0.3"/>
<path d="M85.9529 88.9182C85.9008 88.5006 85.6406 88.1874 85.2243 88.0308C85.0161 87.9786 84.7559 87.9786 84.5477 87.9786C84.3395 87.9786 84.1834 87.9786 83.9752 87.9786C83.8191 87.9786 83.663 87.9786 83.5069 87.9786C83.4548 87.9786 83.4028 87.9786 83.3507 88.0308C83.2466 88.083 83.1426 88.1352 83.0905 88.2918C83.0385 88.3962 83.0905 88.5528 83.0905 88.6572C83.0905 89.388 83.0905 90.1188 83.0905 90.8496C83.0905 91.0584 83.0905 91.215 83.0905 91.4238C83.0905 91.5804 83.1426 91.737 83.2987 91.7892C83.3507 91.7892 83.4028 91.7892 83.4548 91.7892C83.6109 91.737 83.715 91.6326 83.7671 91.476C83.8191 91.3716 83.8191 91.215 83.8191 91.1106C83.8191 90.8496 83.8191 90.6408 83.8191 90.3798C83.8191 90.2754 83.8191 90.2754 83.9232 90.2754C84.1314 90.2754 84.2875 90.2754 84.4957 90.2754C84.7038 90.2754 84.912 90.2754 85.1202 90.2232C85.4324 90.1188 85.6406 90.0144 85.7447 89.7012C85.9529 89.4402 85.9529 89.1792 85.9529 88.9182ZM84.8079 89.7012C84.5998 89.7534 84.3916 89.7534 84.1834 89.7534C84.0793 89.7534 84.0273 89.7534 83.9232 89.7534C83.8712 89.7534 83.8712 89.7534 83.8712 89.7012C83.8712 89.3358 83.8712 89.0226 83.8712 88.6572C83.8712 88.605 83.8712 88.605 83.9232 88.605C84.1834 88.605 84.4436 88.605 84.6518 88.605C84.8079 88.605 84.9641 88.6572 85.0681 88.8138C85.3284 89.0748 85.1722 89.5968 84.8079 89.7012Z" fill="#C5C5C5" fill-opacity="0.3"/>
<path fill-rule="evenodd" clip-rule="evenodd" d="M90.4706 240.837L88.444 242.023C87.9465 242.314 87.381 242.467 86.8051 242.467H86.0031V245.573H86.8051C87.381 245.573 87.9465 245.726 88.444 246.017L90.4706 247.203V240.837ZM90.3951 240.194C90.6909 240.021 91.0623 240.235 91.0623 240.578V247.462C91.0623 247.805 90.6909 248.02 90.3951 247.846L88.146 246.531C87.739 246.292 87.2763 246.167 86.8051 246.167H86.0031C85.6763 246.167 85.4114 245.901 85.4114 245.573V242.467C85.4114 242.139 85.6763 241.873 86.0031 241.873H86.8051C87.2763 241.873 87.739 241.748 88.146 241.509L90.3951 240.194Z" fill="#C5C5C5" fill-opacity="0.4"/>
<path fill-rule="evenodd" clip-rule="evenodd" d="M91.7354 242.787C91.7354 242.623 91.8678 242.49 92.0312 242.49C92.885 242.49 93.5918 243.167 93.5918 244.02C93.5918 244.873 92.885 245.55 92.0312 245.55C91.8678 245.55 91.7354 245.417 91.7354 245.253C91.7354 245.089 91.8678 244.956 92.0312 244.956C92.5745 244.956 93.0002 244.529 93.0002 244.02C93.0002 243.511 92.5745 243.084 92.0312 243.084C91.8678 243.084 91.7354 242.951 91.7354 242.787Z" fill="#C5C5C5" fill-opacity="0.4"/>
<path fill-rule="evenodd" clip-rule="evenodd" d="M91.7354 241.553C91.7354 241.389 91.8678 241.256 92.0312 241.256C93.5835 241.256 94.8567 242.486 94.8567 244.02C94.8567 245.554 93.5835 246.784 92.0312 246.784C91.8678 246.784 91.7354 246.651 91.7354 246.487C91.7354 246.323 91.8678 246.19 92.0312 246.19C93.273 246.19 94.265 245.21 94.265 244.02C94.265 242.83 93.273 241.85 92.0312 241.85C91.8678 241.85 91.7354 241.717 91.7354 241.553Z" fill="#C5C5C5" fill-opacity="0.4"/>
<path fill-rule="evenodd" clip-rule="evenodd" d="M163.619 241.8C163.619 241.636 163.751 241.503 163.915 241.503H171.293C171.456 241.503 171.589 241.636 171.589 241.8C171.589 241.964 171.456 242.097 171.293 242.097H163.915C163.751 242.097 163.619 241.964 163.619 241.8Z" fill="#C5C5C5" fill-opacity="0.4"/>
<path fill-rule="evenodd" clip-rule="evenodd" d="M163.619 240.32C163.619 240.156 163.751 240.023 163.915 240.023H171.293C171.456 240.023 171.589 240.156 171.589 240.32C171.589 240.484 171.456 240.617 171.293 240.617H163.915C163.751 240.617 163.619 240.484 163.619 240.32Z" fill="#C5C5C5" fill-opacity="0.4"/>
<path fill-rule="evenodd" clip-rule="evenodd" d="M163.619 243.28C163.619 243.116 163.751 242.983 163.915 242.983H171.293C171.456 242.983 171.589 243.116 171.589 243.28C171.589 243.444 171.456 243.577 171.293 243.577H163.915C163.751 243.577 163.619 243.444 163.619 243.28Z" fill="#C5C5C5" fill-opacity="0.4"/>
<path fill-rule="evenodd" clip-rule="evenodd" d="M163.619 244.76C163.619 244.596 163.751 244.463 163.915 244.463H171.293C171.456 244.463 171.589 244.596 171.589 244.76C171.589 244.924 171.456 245.057 171.293 245.057H163.915C163.751 245.057 163.619 244.924 163.619 244.76Z" fill="#C5C5C5" fill-opacity="0.4"/>
<path fill-rule="evenodd" clip-rule="evenodd" d="M163.619 246.24C163.619 246.076 163.751 245.943 163.915 245.943H171.278C171.45 245.943 171.589 246.083 171.589 246.255V247.72C171.589 247.884 171.456 248.017 171.293 248.017C171.129 248.017 170.997 247.884 170.997 247.72V246.537H163.915C163.751 246.537 163.619 246.404 163.619 246.24Z" fill="#C5C5C5" fill-opacity="0.4"/>
<path fill-rule="evenodd" clip-rule="evenodd" d="M127.729 243.647C127.566 243.632 127.447 243.487 127.462 243.324C127.489 243.035 127.561 242.611 127.837 242.241C128.123 241.858 128.594 241.573 129.336 241.504C129.499 241.489 129.643 241.61 129.658 241.773C129.673 241.936 129.553 242.081 129.39 242.096C128.786 242.151 128.48 242.37 128.311 242.597C128.133 242.835 128.075 243.126 128.051 243.379C128.036 243.543 127.892 243.663 127.729 243.647Z" fill="#C5C5C5" fill-opacity="0.4"/>
<path fill-rule="evenodd" clip-rule="evenodd" d="M129.232 240.914C127.929 240.914 126.873 241.974 126.873 243.28C126.873 243.996 127.016 244.565 127.298 244.953C127.335 245.003 127.374 245.057 127.415 245.113C127.591 245.352 127.798 245.631 127.962 245.92C128.17 246.285 128.349 246.724 128.349 247.231V247.866H130.116V247.263C130.116 246.75 130.301 246.306 130.512 245.938C130.67 245.664 130.868 245.393 131.038 245.16C131.088 245.092 131.136 245.026 131.18 244.965C131.455 244.578 131.592 244.008 131.592 243.28C131.592 241.974 130.536 240.914 129.232 240.914ZM126.281 243.28C126.281 241.645 127.603 240.32 129.232 240.32C130.862 240.32 132.184 241.645 132.184 243.28C132.184 244.066 132.039 244.78 131.661 245.31C131.609 245.383 131.555 245.457 131.501 245.531C131.114 246.062 130.708 246.617 130.708 247.263V248.163C130.708 248.327 130.576 248.46 130.412 248.46H128.053C127.889 248.46 127.757 248.327 127.757 248.163V247.231C127.757 246.576 127.342 246.013 126.949 245.478C126.905 245.419 126.862 245.361 126.819 245.302C126.436 244.773 126.281 244.062 126.281 243.28Z" fill="#C5C5C5" fill-opacity="0.4"/>
<path d="M226.813 91.9874L180.681 310.25L98.5185 36.935L226.813 91.9874Z" fill="#282828"/>
<path d="M107.251 129.182H101.907C101.836 129.182 101.768 129.153 101.718 129.101C101.668 129.049 101.64 128.978 101.64 128.905C101.64 128.832 101.668 128.761 101.718 128.709C101.768 128.658 101.836 128.628 101.907 128.628H107.251C107.532 128.63 107.803 128.517 108.005 128.314C108.208 128.111 108.325 127.834 108.333 127.543V113.638C108.333 113.491 108.305 113.345 108.25 113.21C108.196 113.074 108.116 112.951 108.016 112.848C107.915 112.744 107.796 112.663 107.664 112.607C107.533 112.552 107.393 112.524 107.251 112.526H93.8806C93.5963 112.526 93.3237 112.643 93.1226 112.851C92.9216 113.06 92.8087 113.343 92.8087 113.638V127.543C92.8087 127.838 92.9216 128.12 93.1226 128.329C93.3237 128.537 93.5963 128.654 93.8806 128.654H99.2298C99.3005 128.654 99.3684 128.684 99.4184 128.736C99.4684 128.787 99.4965 128.858 99.4965 128.931C99.4965 129.005 99.4684 129.075 99.4184 129.127C99.3684 129.179 99.3005 129.208 99.2298 129.208H93.8806C93.4544 129.208 93.0455 129.033 92.7437 128.72C92.4418 128.408 92.2716 127.985 92.2703 127.543V113.638C92.2716 113.195 92.4417 112.771 92.7434 112.458C93.0451 112.145 93.4539 111.969 93.8806 111.967H107.251C107.677 111.969 108.086 112.145 108.386 112.458C108.687 112.771 108.856 113.195 108.856 113.638V127.543C108.85 127.98 108.678 128.397 108.377 128.703C108.077 129.01 107.673 129.182 107.251 129.182Z" fill="#C5C5C5" fill-opacity="0.4"/>
<path d="M107.252 111.817C107.719 111.818 108.166 112.012 108.495 112.354C108.823 112.696 109.007 113.157 109.007 113.637V127.545C108.999 128.02 108.812 128.474 108.484 128.808C108.156 129.143 107.713 129.332 107.251 129.332H101.907C101.795 129.332 101.688 129.285 101.61 129.205C101.533 129.124 101.49 129.016 101.49 128.905C101.49 128.793 101.533 128.685 101.61 128.605C101.688 128.524 101.795 128.478 101.907 128.478H107.252C107.492 128.479 107.725 128.384 107.899 128.208C108.073 128.034 108.176 127.795 108.183 127.542V113.637C108.183 113.51 108.158 113.384 108.111 113.266C108.064 113.148 107.995 113.042 107.908 112.953C107.821 112.863 107.719 112.793 107.606 112.746C107.494 112.698 107.374 112.675 107.253 112.676H93.8806C93.6379 112.676 93.4036 112.776 93.2302 112.956C93.0569 113.135 92.9588 113.381 92.9587 113.637V127.542C92.9587 127.799 93.0567 128.045 93.2302 128.225C93.4036 128.405 93.6379 128.504 93.8806 128.504H99.2302C99.3423 128.505 99.4486 128.551 99.5261 128.631C99.6036 128.712 99.6462 128.82 99.6462 128.931C99.6462 129.043 99.6036 129.151 99.5261 129.231C99.4486 129.311 99.3423 129.358 99.2302 129.358H93.8806C93.4129 129.358 92.965 129.165 92.6355 128.825C92.3063 128.484 92.1214 128.023 92.1199 127.543V113.637L92.1296 113.458C92.1704 113.043 92.3475 112.653 92.6355 112.354C92.9647 112.013 93.4117 111.819 93.8796 111.817H107.252Z" stroke="#C5C5C5" stroke-opacity="0.4" stroke-width="0.3" stroke-miterlimit="10"/>
<path d="M163.531 129.182H158.177C158.106 129.182 158.038 129.153 157.988 129.101C157.938 129.049 157.91 128.978 157.91 128.905C157.91 128.832 157.938 128.761 157.988 128.709C158.038 128.658 158.106 128.628 158.177 128.628H163.531C163.813 128.631 164.085 128.519 164.289 128.316C164.492 128.113 164.61 127.835 164.618 127.543V113.638C164.618 113.343 164.505 113.06 164.304 112.851C164.103 112.643 163.831 112.526 163.546 112.526H150.151C149.866 112.526 149.594 112.643 149.393 112.851C149.192 113.06 149.079 113.343 149.079 113.638V127.543C149.079 127.838 149.192 128.12 149.393 128.329C149.594 128.537 149.866 128.654 150.151 128.654H155.5C155.571 128.654 155.638 128.684 155.688 128.736C155.738 128.787 155.767 128.858 155.767 128.931C155.767 129.005 155.738 129.075 155.688 129.127C155.638 129.179 155.571 129.208 155.5 129.208H150.151C149.724 129.208 149.316 129.033 149.014 128.72C148.712 128.408 148.542 127.985 148.54 127.543V113.638C148.542 113.195 148.712 112.771 149.013 112.458C149.315 112.145 149.724 111.969 150.151 111.967H163.531C163.957 111.969 164.366 112.145 164.667 112.458C164.967 112.771 165.136 113.195 165.136 113.638V127.543C165.13 127.98 164.958 128.397 164.657 128.703C164.357 129.01 163.953 129.182 163.531 129.182Z" fill="#C5C5C5" fill-opacity="0.4"/>
<path d="M163.531 111.817L163.706 111.827C164.109 111.87 164.487 112.055 164.775 112.354C165.103 112.696 165.286 113.157 165.286 113.637V127.545C165.279 128.02 165.092 128.474 164.765 128.808C164.437 129.143 163.994 129.332 163.531 129.332H158.177C158.065 129.332 157.958 129.285 157.88 129.205C157.803 129.124 157.76 129.016 157.76 128.905C157.76 128.793 157.803 128.685 157.88 128.605C157.958 128.524 158.065 128.478 158.177 128.478H163.532C163.774 128.48 164.008 128.385 164.183 128.209C164.357 128.035 164.46 127.796 164.468 127.542V113.637C164.468 113.381 164.37 113.135 164.197 112.956C164.023 112.776 163.789 112.676 163.546 112.676H150.151C149.908 112.676 149.674 112.776 149.5 112.956C149.327 113.135 149.229 113.381 149.229 113.637V127.542C149.229 127.799 149.327 128.045 149.5 128.225C149.674 128.405 149.908 128.504 150.151 128.504H155.5C155.612 128.505 155.719 128.551 155.796 128.631C155.874 128.712 155.916 128.82 155.916 128.931C155.916 129.043 155.874 129.151 155.796 129.231C155.719 129.311 155.612 129.358 155.5 129.358H150.151C149.683 129.358 149.235 129.165 148.906 128.825C148.576 128.484 148.391 128.023 148.39 127.543V113.637L148.4 113.458C148.44 113.043 148.617 112.653 148.906 112.354C149.235 112.013 149.682 111.819 150.15 111.817H163.531Z" stroke="#C5C5C5" stroke-opacity="0.4" stroke-width="0.3" stroke-miterlimit="10"/>
<path d="M107.206 215.363H101.857C101.818 215.369 101.779 215.366 101.742 215.354C101.705 215.343 101.67 215.323 101.641 215.297C101.612 215.27 101.588 215.237 101.572 215.201C101.556 215.164 101.548 215.124 101.548 215.084C101.548 215.044 101.556 215.004 101.572 214.967C101.588 214.931 101.612 214.898 101.641 214.872C101.67 214.845 101.705 214.826 101.742 214.814C101.779 214.803 101.818 214.799 101.857 214.805H107.206C107.487 214.799 107.754 214.68 107.951 214.472C108.147 214.264 108.258 213.984 108.258 213.693V199.814C108.258 199.519 108.145 199.236 107.944 199.028C107.743 198.819 107.47 198.702 107.186 198.702H93.8252C93.5414 198.704 93.2695 198.821 93.0688 199.029C92.8681 199.238 92.7547 199.52 92.7534 199.814V213.693C92.7534 213.988 92.8663 214.271 93.0673 214.479C93.2683 214.688 93.541 214.805 93.8252 214.805H99.1996C99.2647 214.814 99.3243 214.848 99.3675 214.899C99.4107 214.95 99.4345 215.016 99.4345 215.084C99.4345 215.152 99.4107 215.218 99.3675 215.269C99.3243 215.321 99.2647 215.354 99.1996 215.363H93.8252C93.399 215.362 92.9907 215.185 92.6898 214.872C92.3889 214.559 92.22 214.135 92.22 213.693V199.814C92.22 199.372 92.3891 198.949 92.6901 198.637C92.9912 198.324 93.3995 198.149 93.8252 198.149H107.206C107.632 198.149 108.041 198.324 108.343 198.636C108.645 198.948 108.815 199.372 108.816 199.814V213.693C108.815 214.136 108.645 214.56 108.343 214.873C108.041 215.186 107.632 215.362 107.206 215.363Z" fill="#C5C5C5" fill-opacity="0.4"/>
<path d="M107.206 197.999C107.674 197.999 108.121 198.191 108.45 198.532C108.78 198.872 108.965 199.334 108.966 199.814V213.694C108.965 214.174 108.78 214.636 108.451 214.977C108.163 215.276 107.785 215.461 107.381 215.503L107.206 215.513H101.857V215.512C101.803 215.517 101.749 215.514 101.698 215.498C101.639 215.48 101.586 215.449 101.54 215.408C101.495 215.367 101.459 215.317 101.435 215.261C101.41 215.206 101.398 215.145 101.398 215.085C101.398 215.024 101.41 214.963 101.435 214.907C101.459 214.851 101.495 214.801 101.54 214.76C101.585 214.719 101.639 214.689 101.698 214.67C101.749 214.655 101.803 214.651 101.857 214.656V214.655H107.203C107.443 214.65 107.673 214.548 107.842 214.369C108.012 214.189 108.108 213.947 108.108 213.693V199.814C108.108 199.557 108.009 199.312 107.835 199.132C107.662 198.953 107.428 198.852 107.186 198.852H93.8264L93.7356 198.857C93.5261 198.879 93.3286 198.976 93.177 199.133C93.0036 199.313 92.9047 199.558 92.9036 199.815V213.693C92.9036 213.95 93.0015 214.196 93.175 214.376C93.3484 214.555 93.5828 214.655 93.8254 214.655H99.2102L99.2209 214.657C99.3233 214.671 99.4163 214.723 99.4827 214.802C99.5489 214.881 99.5842 214.982 99.5842 215.085C99.5841 215.187 99.5487 215.287 99.4827 215.366C99.4163 215.445 99.3233 215.498 99.2209 215.512L99.2102 215.513H93.8245C93.3569 215.512 92.9097 215.318 92.5813 214.976C92.2532 214.635 92.0696 214.173 92.0696 213.693V199.814C92.0696 199.334 92.2538 198.874 92.5823 198.533C92.911 198.192 93.3581 197.999 93.8254 197.999H107.206Z" stroke="#C5C5C5" stroke-opacity="0.4" stroke-width="0.3" stroke-miterlimit="10"/>
<path d="M163.612 215.363H158.252C158.187 215.354 158.128 215.321 158.084 215.269C158.041 215.218 158.018 215.152 158.018 215.084C158.018 215.016 158.041 214.95 158.084 214.899C158.128 214.848 158.187 214.814 158.252 214.805H163.612C163.896 214.805 164.169 214.688 164.37 214.479C164.571 214.271 164.683 213.988 164.683 213.693V199.814C164.682 199.52 164.569 199.238 164.368 199.029C164.167 198.821 163.896 198.704 163.612 198.702H150.226C149.943 198.704 149.671 198.821 149.471 199.03C149.271 199.238 149.159 199.52 149.159 199.814V213.693C149.159 213.839 149.186 213.983 149.239 214.118C149.292 214.253 149.371 214.376 149.47 214.479C149.569 214.582 149.687 214.664 149.817 214.72C149.946 214.776 150.085 214.805 150.226 214.805H155.56C155.625 214.814 155.685 214.848 155.728 214.899C155.771 214.95 155.795 215.016 155.795 215.084C155.795 215.152 155.771 215.218 155.728 215.269C155.685 215.321 155.625 215.354 155.56 215.363H150.221C149.795 215.361 149.388 215.184 149.087 214.871C148.786 214.558 148.617 214.135 148.616 213.693V199.814C148.617 199.373 148.787 198.95 149.087 198.638C149.388 198.326 149.796 198.15 150.221 198.149H163.612C164.037 198.149 164.446 198.324 164.747 198.637C165.048 198.949 165.217 199.372 165.217 199.814V213.693C165.217 214.135 165.048 214.559 164.747 214.872C164.446 215.185 164.038 215.362 163.612 215.363Z" fill="#C5C5C5" fill-opacity="0.4"/>
<path d="M163.612 197.999C164.079 197.999 164.526 198.192 164.855 198.533C165.183 198.874 165.367 199.334 165.367 199.814V213.693C165.367 214.173 165.183 214.635 164.855 214.976C164.568 215.275 164.19 215.461 163.787 215.503L163.612 215.513H158.242L158.231 215.512C158.129 215.498 158.036 215.445 157.969 215.366C157.903 215.287 157.868 215.187 157.868 215.085C157.868 214.982 157.903 214.881 157.969 214.802C158.036 214.723 158.129 214.671 158.231 214.657L158.242 214.655H163.612C163.854 214.655 164.088 214.555 164.261 214.376C164.435 214.196 164.534 213.95 164.534 213.693V199.815L164.529 199.719C164.507 199.498 164.412 199.291 164.26 199.133C164.087 198.954 163.853 198.853 163.611 198.852H150.227L150.136 198.857C149.927 198.88 149.73 198.976 149.58 199.133C149.407 199.313 149.309 199.558 149.309 199.814V213.694C149.309 213.821 149.332 213.946 149.378 214.063C149.425 214.18 149.492 214.286 149.578 214.376C149.663 214.465 149.765 214.535 149.876 214.583C149.987 214.63 150.106 214.655 150.226 214.655H155.571L155.582 214.657C155.684 214.671 155.777 214.723 155.843 214.802C155.909 214.881 155.945 214.982 155.945 215.085C155.945 215.187 155.909 215.287 155.843 215.366C155.777 215.445 155.684 215.498 155.582 215.512L155.571 215.513H150.22C149.753 215.51 149.307 215.316 148.979 214.975C148.651 214.634 148.467 214.173 148.465 213.694V199.814L148.475 199.635C148.516 199.222 148.692 198.832 148.979 198.534C149.307 198.193 149.754 198 150.22 197.999H163.612Z" stroke="#C5C5C5" stroke-opacity="0.4" stroke-width="0.3" stroke-miterlimit="10"/>
<path d="M122.488 180.731C122.526 180.731 122.563 180.739 122.598 180.754C122.632 180.769 122.664 180.792 122.69 180.82L128.346 186.687C128.451 186.794 128.593 186.854 128.741 186.854C128.889 186.854 129.031 186.794 129.136 186.687L134.671 180.945C134.726 180.89 134.799 180.859 134.875 180.859C134.951 180.859 135.024 180.89 135.079 180.945C135.132 181.001 135.161 181.076 135.161 181.154C135.161 181.232 135.132 181.307 135.079 181.363L129.544 187.104C129.439 187.214 129.315 187.3 129.178 187.36C129.041 187.419 128.894 187.449 128.746 187.449C128.598 187.449 128.451 187.419 128.314 187.36C128.177 187.3 128.053 187.214 127.948 187.104L122.292 181.237C122.239 181.182 122.21 181.107 122.21 181.028C122.21 180.95 122.239 180.875 122.292 180.82C122.344 180.765 122.415 180.734 122.488 180.731Z" fill="#C5C5C5" fill-opacity="0.4"/>
<path d="M122.489 180.581C122.547 180.581 122.605 180.593 122.658 180.617C122.711 180.64 122.758 180.674 122.798 180.715L128.453 186.582L128.515 186.634C128.582 186.68 128.661 186.705 128.741 186.705C128.848 186.705 128.951 186.661 129.029 186.582L134.563 180.841L134.564 180.839H134.565C134.647 180.757 134.758 180.709 134.875 180.708C134.992 180.708 135.103 180.756 135.185 180.839L135.188 180.841C135.268 180.925 135.311 181.038 135.311 181.154C135.311 181.27 135.268 181.382 135.188 181.466H135.187L129.651 187.207L129.652 187.208C129.534 187.331 129.394 187.43 129.238 187.498C129.082 187.565 128.915 187.599 128.746 187.599C128.577 187.599 128.41 187.565 128.255 187.498C128.099 187.43 127.958 187.331 127.84 187.208V187.207L122.184 181.341L122.183 181.34C122.104 181.256 122.059 181.144 122.059 181.029C122.059 180.913 122.103 180.8 122.183 180.716L122.184 180.715C122.263 180.634 122.37 180.586 122.483 180.582L122.489 180.581Z" stroke="#C5C5C5" stroke-opacity="0.4" stroke-width="0.3"/>
<path d="M134.883 146.296C134.845 146.296 134.808 146.288 134.774 146.273C134.739 146.258 134.708 146.235 134.682 146.208L129.025 140.341C128.92 140.233 128.778 140.173 128.63 140.173C128.483 140.173 128.341 140.233 128.235 140.341L122.7 146.082C122.645 146.137 122.572 146.168 122.496 146.168C122.42 146.168 122.347 146.137 122.292 146.082C122.239 146.027 122.21 145.952 122.21 145.873C122.21 145.795 122.239 145.72 122.292 145.665L127.828 139.923C127.932 139.814 128.056 139.727 128.193 139.668C128.33 139.608 128.477 139.578 128.625 139.578C128.774 139.578 128.921 139.608 129.057 139.668C129.194 139.727 129.319 139.814 129.423 139.923L135.079 145.79C135.132 145.846 135.162 145.921 135.162 145.999C135.162 146.077 135.132 146.152 135.079 146.208C135.027 146.262 134.957 146.294 134.883 146.296Z" fill="#C5C5C5" fill-opacity="0.4"/>
<path d="M134.882 146.447C134.824 146.446 134.767 146.434 134.713 146.411C134.661 146.387 134.613 146.354 134.574 146.312L128.918 140.446L128.856 140.393C128.789 140.347 128.71 140.323 128.63 140.323C128.524 140.323 128.42 140.366 128.342 140.446L122.808 146.186L122.807 146.188L122.806 146.188C122.724 146.271 122.613 146.319 122.497 146.319C122.38 146.319 122.268 146.271 122.186 146.188L122.183 146.186C122.103 146.102 122.06 145.989 122.06 145.873C122.06 145.758 122.103 145.645 122.183 145.561L122.184 145.561L127.72 139.821L127.719 139.82C127.837 139.696 127.978 139.597 128.133 139.53C128.289 139.462 128.457 139.428 128.625 139.428C128.794 139.428 128.961 139.462 129.117 139.53C129.272 139.597 129.414 139.696 129.532 139.82L129.532 139.821L135.187 145.686L135.188 145.687C135.268 145.771 135.312 145.883 135.312 145.998C135.312 146.114 135.268 146.227 135.188 146.311L135.187 146.312C135.108 146.393 135.002 146.441 134.888 146.446L134.882 146.447Z" stroke="#C5C5C5" stroke-opacity="0.4" stroke-width="0.3"/>
<path d="M128.648 164.2C128.998 164.2 129.282 163.906 129.282 163.543C129.282 163.179 128.998 162.885 128.648 162.885C128.298 162.885 128.014 163.179 128.014 163.543C128.014 163.906 128.298 164.2 128.648 164.2Z" fill="#C5C5C5" fill-opacity="0.4"/>
</g>
<defs>
<filter id="filter0_d_786_6990" x="61" y="78" width="129" height="193" filterUnits="userSpaceOnUse" color-interpolation-filters="sRGB">
<feFlood flood-opacity="0" result="BackgroundImageFix"/>
<feColorMatrix in="SourceAlpha" type="matrix" values="0 0 0 0 0 0 0 0 0 0 0 0 0 0 0 0 0 0 127 0" result="hardAlpha"/>
<feOffset dx="-3" dy="3"/>
<feGaussianBlur stdDeviation="2"/>
<feComposite in2="hardAlpha" operator="out"/>
<feColorMatrix type="matrix" values="0 0 0 0 0 0 0 0 0 0 0 0 0 0 0 0 0 0 0.25 0"/>
<feBlend mode="normal" in2="BackgroundImageFix" result="effect1_dropShadow_786_6990"/>
<feBlend mode="normal" in="SourceGraphic" in2="effect1_dropShadow_786_6990" result="shape"/>
</filter>
<clipPath id="clip0_786_6990">
<rect width="121" height="185" fill="white" transform="translate(68 79)"/>
</clipPath>
</defs>
</svg>
