<svg width="257" height="343" viewBox="0 0 257 343" fill="none" xmlns="http://www.w3.org/2000/svg">
<rect width="257" height="343" fill="#BBBBBB"/>
<g clip-path="url(#clip0_786_6981)" filter="url(#filter0_d_786_6981)">
<rect width="103.818" height="165.927" transform="translate(77 89)" fill="#FBFBFB"/>
<rect x="77" y="89" width="103.818" height="165.927" fill="#FBFBFB"/>
<path d="M93.3414 100.517C93.2967 100.517 93.252 100.517 93.252 100.517C93.0734 100.471 93.0288 100.33 92.9841 100.19C92.9841 100.143 92.9841 100.096 92.9841 100.049C92.9841 99.2065 92.9841 98.3638 92.9841 97.521C92.9841 97.4274 92.9841 97.3338 93.0288 97.2401C93.0734 97.0997 93.1627 97.0529 93.2967 97.0529C93.4307 97.0529 93.5646 97.1465 93.6093 97.287C93.6539 97.4274 93.6539 97.5679 93.6539 97.7083C93.6539 97.9424 93.6539 98.1765 93.6539 98.3638C93.6539 98.4106 93.6539 98.4574 93.7432 98.4574C94.1451 98.4574 94.5916 98.4574 94.9935 98.4574C95.0828 98.4574 95.0828 98.4574 95.0828 98.3638C95.0828 98.0829 95.0828 97.802 95.0828 97.521C95.0828 97.4274 95.0828 97.3338 95.1275 97.2401C95.1721 97.0997 95.3061 97.0529 95.44 97.0529C95.5293 97.0529 95.6186 97.1465 95.6633 97.287C95.7079 97.4274 95.7079 97.5679 95.7079 97.7083C95.7079 98.0361 95.7079 98.4106 95.7079 98.7383C95.7079 99.2065 95.7079 99.6279 95.7079 100.096C95.7079 100.19 95.7079 100.283 95.6633 100.377C95.6186 100.517 95.5293 100.564 95.3954 100.564C95.2614 100.564 95.1721 100.517 95.1275 100.377C95.0828 100.237 95.0828 100.096 95.0828 99.9556C95.0828 99.8152 95.0828 99.6279 95.0828 99.4874C95.0828 99.347 95.0828 99.2065 95.0828 99.0661C95.0828 99.0193 95.0382 99.0193 95.0382 99.0193C94.8149 99.0193 94.5916 99.0193 94.3684 99.0193C94.1451 99.0193 93.9218 99.0193 93.7432 99.0193C93.6986 99.0193 93.6539 99.0193 93.6539 99.0661C93.6539 99.2534 93.6539 99.4406 93.6539 99.6279C93.6539 99.8152 93.6539 100.002 93.6539 100.19C93.6093 100.33 93.52 100.471 93.3414 100.517Z" fill="#C2C2C2"/>
<path d="M87.4024 97.3806C87.4024 97.4743 87.4024 97.5211 87.4024 97.6147C87.4024 97.6616 87.4024 97.6616 87.3578 97.6616C87.0899 97.8488 86.9559 98.1298 86.9113 98.4575C86.822 98.832 86.8666 99.2066 87.0899 99.5811C87.2238 99.8152 87.4471 99.9557 87.715 100.003C88.2062 100.049 88.5634 99.7684 88.6527 99.347C88.742 99.0193 88.7867 98.6448 88.6527 98.317C88.6081 98.1298 88.4741 97.9893 88.3402 97.8488C88.2508 97.7552 88.2062 97.6616 88.2062 97.5679C88.2062 97.4743 88.2062 97.3338 88.2062 97.2402C88.2062 97.1466 88.2062 97.1466 88.2955 97.1934C88.5634 97.2402 88.7867 97.3806 88.9653 97.6147C89.1886 97.8957 89.2779 98.2234 89.3225 98.5511C89.3672 98.8789 89.3225 99.2066 89.2332 99.5343C89.0099 100.096 88.6527 100.424 88.0722 100.518C87.715 100.564 87.3578 100.564 87.0452 100.424C86.5987 100.237 86.3754 99.8621 86.2415 99.4407C86.1968 98.832 86.1968 98.3638 86.4201 97.8957C86.554 97.6616 86.688 97.4275 86.9113 97.2402C87.0452 97.1466 87.1792 97.0997 87.3131 97.0997C87.3578 97.0997 87.4024 97.0997 87.4024 97.1466C87.4024 97.2402 87.4024 97.287 87.4024 97.3806Z" fill="#C2C2C2"/>
<path d="M84.6787 100.518C84.634 100.518 84.5447 100.518 84.5001 100.518C84.2321 100.518 83.9642 100.424 83.741 100.283C83.5177 100.143 83.3837 99.9089 83.3391 99.628C83.2944 99.4407 83.4284 99.3002 83.5623 99.2534C83.6517 99.2534 83.6963 99.2534 83.741 99.3002C83.7856 99.347 83.8303 99.3939 83.8303 99.4407C83.8749 99.5343 83.9196 99.628 83.9642 99.7216C84.0535 99.9089 84.1875 100.003 84.4107 100.049C84.5894 100.096 84.8126 100.049 84.9912 99.9557C85.0805 99.9089 85.1698 99.8152 85.2145 99.7216C85.2591 99.5811 85.2591 99.4875 85.1698 99.3939C85.0805 99.2534 84.9019 99.1598 84.768 99.113C84.5447 99.0193 84.3214 99.0193 84.0982 98.9257C83.9196 98.8789 83.741 98.7852 83.607 98.6448C83.2944 98.317 83.2944 97.802 83.5623 97.4743C83.6517 97.3806 83.7856 97.287 83.9196 97.2402C84.4107 97.0061 84.9019 97.0061 85.3485 97.287C85.5271 97.4275 85.661 97.5679 85.7057 97.802C85.7503 97.9893 85.661 98.1297 85.5271 98.1766C85.4378 98.2234 85.3485 98.1766 85.3038 98.1297C85.2145 98.0361 85.1698 97.9425 85.1252 97.8488C85.1252 97.802 85.0805 97.802 85.0805 97.7552C84.9912 97.6147 84.8573 97.5211 84.7233 97.4743C84.5001 97.4275 84.3214 97.4743 84.1428 97.6147C83.9642 97.7552 83.9642 97.9893 84.1428 98.1297C84.2768 98.2234 84.4554 98.2702 84.5894 98.317C84.8573 98.4107 85.1252 98.4575 85.3485 98.5979C85.5717 98.6916 85.7503 98.832 85.8396 99.0661C85.9736 99.4407 85.8843 100.049 85.3038 100.33C85.0805 100.424 84.8573 100.471 84.6787 100.518Z" fill="#C2C2C2"/>
<path d="M96.4223 99.1598C96.4223 98.832 96.4223 98.5511 96.4223 98.2234C96.4223 97.9893 96.3777 97.802 96.4223 97.5679C96.4223 97.4275 96.4223 97.287 96.467 97.1934C96.5116 97.0529 96.6009 97.0061 96.7349 97.0061C96.8688 97.0061 96.9581 97.0529 97.0475 97.1934C97.0921 97.3338 97.1368 97.4743 97.1368 97.5679C97.1368 97.802 97.1368 98.0361 97.1368 98.2702C97.1368 98.5511 97.1368 98.832 97.1368 99.113C97.1368 99.4407 97.1368 99.7684 97.1368 100.049C97.1368 100.143 97.1368 100.19 97.0921 100.283C97.0474 100.377 96.9581 100.471 96.8242 100.471C96.6009 100.471 96.467 100.377 96.467 100.096C96.4223 99.8152 96.4223 99.4875 96.4223 99.1598Z" fill="#C2C2C2"/>
<path d="M96.7349 95.2269C96.2884 95.2269 95.8865 95.3674 95.5739 95.6483C95.44 95.7888 95.44 95.7419 95.3507 95.6483C95.2167 95.5547 95.2614 95.5078 95.3507 95.4142C95.6186 95.1801 95.9311 94.9928 96.2884 94.946C97.0028 94.8056 97.5833 94.9928 98.1191 95.461C98.2084 95.5078 98.2084 95.5547 98.1191 95.6015C98.0745 95.6483 98.0745 95.6483 98.0298 95.6951C97.9852 95.7419 97.9405 95.7419 97.8959 95.6951C97.8512 95.6483 97.8066 95.6483 97.7619 95.6015C97.494 95.3674 97.2261 95.2737 96.8689 95.2269C96.8242 95.2269 96.8242 95.2269 96.7795 95.2269C96.7795 95.2737 96.7795 95.2737 96.7349 95.2269Z" fill="#C2C2C2"/>
<path d="M88.0722 96.8656C88.0722 97.0529 88.0722 97.287 88.0722 97.4742C88.0722 97.6615 88.0722 97.8488 88.0276 98.0361C88.0276 98.1297 87.9829 98.1765 87.9383 98.2702C87.8936 98.317 87.8489 98.317 87.7596 98.317C87.6703 98.317 87.6703 98.2233 87.6257 98.1765C87.581 98.1297 87.581 98.0361 87.581 97.9892C87.581 97.6147 87.5364 97.2401 87.5364 96.8656C87.5364 96.7719 87.5364 96.7251 87.581 96.6315C87.6257 96.491 87.715 96.4442 87.8489 96.4442C87.9383 96.4442 88.0276 96.5379 88.0722 96.6315C88.0722 96.7251 88.1169 96.8188 88.0722 96.8656Z" fill="#C2C2C2"/>
<path d="M96.6456 95.6014C97.0029 95.6014 97.3154 95.6951 97.5833 95.9292C97.7173 96.0228 97.7173 96.1164 97.5833 96.2101C97.5387 96.2569 97.494 96.2569 97.4494 96.2101C97.3601 96.1164 97.2708 96.0696 97.1368 96.0228C96.7349 95.8824 96.3777 95.8824 96.0205 96.1633C95.9758 96.2101 95.9312 96.2101 95.9312 96.2569C95.8865 96.2569 95.8865 96.2569 95.8419 96.2569C95.7972 96.2101 95.7526 96.1633 95.7079 96.1164C95.6633 96.0696 95.6633 96.0228 95.7079 96.0228C95.9312 95.8355 96.1545 95.6951 96.467 95.6483C96.5117 95.6014 96.601 95.6014 96.6456 95.6014Z" fill="#C2C2C2"/>
<path d="M96.6903 96.3037C96.8243 96.3037 96.9136 96.3037 97.0475 96.3973C97.0922 96.3973 97.0922 96.4442 97.0922 96.4442C97.1815 96.491 97.1815 96.5846 97.0922 96.6783C97.0029 96.7719 97.0029 96.7719 96.8689 96.7251C96.6903 96.6314 96.5563 96.6314 96.3777 96.7251C96.3331 96.7719 96.2884 96.7719 96.2438 96.7251C96.1991 96.6783 96.1991 96.6783 96.1545 96.6314C96.1098 96.5846 96.1098 96.5378 96.1545 96.491C96.3777 96.3505 96.5117 96.3505 96.6903 96.3037Z" fill="#C2C2C2"/>
<path d="M100.575 100.096C100.53 100.096 100.53 100.049 100.575 100.096C100.53 99.8621 100.441 99.6748 100.352 99.4875C100.084 98.7852 99.8159 98.1298 99.548 97.4275C99.5033 97.3338 99.4587 97.2402 99.414 97.1934C99.2354 96.9125 98.8782 96.9125 98.6996 97.1466C98.6103 97.2402 98.5656 97.3338 98.521 97.4743C98.2977 98.1766 97.9851 98.8789 97.7619 99.5812C97.6726 99.7684 97.6279 99.9557 97.5833 100.143C97.5833 100.237 97.5833 100.33 97.6726 100.424C97.7172 100.471 97.7619 100.471 97.8065 100.518C97.8512 100.518 97.8512 100.518 97.8958 100.518C97.9851 100.518 98.0298 100.471 98.0744 100.424C98.1191 100.377 98.1637 100.283 98.2084 100.19C98.253 100.049 98.2977 99.9089 98.3423 99.7684C98.3423 99.7216 98.387 99.6748 98.4317 99.6748C98.7889 99.6748 99.1461 99.6748 99.5033 99.6748C99.548 99.6748 99.548 99.6748 99.5926 99.6748C99.6373 99.6748 99.6819 99.7216 99.6819 99.7684C99.6819 99.8152 99.7266 99.8621 99.7266 99.9089C99.7712 100.049 99.8159 100.19 99.9052 100.33C99.9498 100.424 99.9945 100.518 100.128 100.518C100.173 100.518 100.218 100.518 100.262 100.518C100.441 100.518 100.486 100.424 100.486 100.283V100.237C100.575 100.19 100.575 100.19 100.575 100.096C100.575 100.143 100.575 100.143 100.575 100.096ZM99.414 99.1598C99.1461 99.1598 98.9228 99.1598 98.6549 99.1598C98.5656 99.1598 98.5656 99.1598 98.6103 99.0661C98.7442 98.6916 98.8335 98.2702 99.0121 97.8957C99.0121 97.8488 99.0121 97.8488 99.0568 97.802C99.1461 97.9893 99.1908 98.1766 99.2801 98.317C99.3694 98.5511 99.4587 98.7852 99.5033 99.0193C99.5033 99.113 99.5033 99.1598 99.414 99.1598Z" fill="#C2C2C2"/>
<path d="M92.4036 97.8956C92.359 97.521 92.1357 97.2401 91.7785 97.0997C91.5999 97.0529 91.3766 97.0529 91.198 97.0529C91.0194 97.0529 90.8854 97.0529 90.7068 97.0529C90.5728 97.0529 90.4389 97.0529 90.3049 97.0529C90.2603 97.0529 90.2156 97.0529 90.171 97.0997C90.0817 97.1465 89.9924 97.1933 89.9477 97.3338C89.903 97.4274 89.9477 97.5679 89.9477 97.6615C89.9477 98.317 89.9477 98.9724 89.9477 99.6279C89.9477 99.8152 89.9477 99.9556 89.9477 100.143C89.9477 100.283 89.9924 100.424 90.1263 100.471C90.171 100.471 90.2156 100.471 90.2603 100.471C90.3942 100.424 90.4835 100.33 90.5282 100.19C90.5728 100.096 90.5728 99.9556 90.5728 99.862C90.5728 99.6279 90.5728 99.4406 90.5728 99.2065C90.5728 99.1129 90.5728 99.1129 90.6621 99.1129C90.8408 99.1129 90.9747 99.1129 91.1533 99.1129C91.3319 99.1129 91.5105 99.1129 91.6892 99.0661C91.9571 98.9724 92.1357 98.8788 92.225 98.5979C92.4036 98.3638 92.4036 98.1297 92.4036 97.8956ZM91.4212 98.5979C91.2426 98.6447 91.064 98.6447 90.8854 98.6447C90.7961 98.6447 90.7515 98.6447 90.6621 98.6447C90.6175 98.6447 90.6175 98.6447 90.6175 98.5979C90.6175 98.2702 90.6175 97.9892 90.6175 97.6615C90.6175 97.6147 90.6175 97.6147 90.6621 97.6147C90.8854 97.6147 91.1087 97.6147 91.2873 97.6147C91.4212 97.6147 91.5552 97.6615 91.6445 97.802C91.8678 98.0361 91.7338 98.5042 91.4212 98.5979Z" fill="#C2C2C2"/>
<path fill-rule="evenodd" clip-rule="evenodd" d="M96.2798 234.152L94.5409 235.215C94.1141 235.476 93.6289 235.614 93.1348 235.614H92.4466V238.4H93.1348C93.6289 238.4 94.1141 238.537 94.5409 238.798L96.2798 239.862V234.152ZM96.2149 233.575C96.4688 233.42 96.7874 233.612 96.7874 233.92V240.093C96.7874 240.402 96.4688 240.594 96.2149 240.439L94.2853 239.258C93.936 239.045 93.539 238.932 93.1348 238.932H92.4466C92.1663 238.932 91.939 238.694 91.939 238.4V235.614C91.939 235.32 92.1663 235.081 92.4466 235.081H93.1348C93.539 235.081 93.936 234.969 94.2853 234.755L96.2149 233.575Z" fill="#ADADAD"/>
<path fill-rule="evenodd" clip-rule="evenodd" d="M97.365 235.901C97.365 235.753 97.4786 235.634 97.6188 235.634C98.3514 235.634 98.9579 236.242 98.9579 237.007C98.9579 237.772 98.3514 238.379 97.6188 238.379C97.4786 238.379 97.365 238.26 97.365 238.113C97.365 237.966 97.4786 237.847 97.6188 237.847C98.0849 237.847 98.4502 237.463 98.4502 237.007C98.4502 236.55 98.0849 236.167 97.6188 236.167C97.4786 236.167 97.365 236.048 97.365 235.901Z" fill="#ADADAD"/>
<path fill-rule="evenodd" clip-rule="evenodd" d="M97.365 234.794C97.365 234.647 97.4786 234.528 97.6188 234.528C98.9507 234.528 100.043 235.631 100.043 237.007C100.043 238.383 98.9507 239.485 97.6188 239.485C97.4786 239.485 97.365 239.366 97.365 239.219C97.365 239.072 97.4786 238.953 97.6188 238.953C98.6843 238.953 99.5354 238.074 99.5354 237.007C99.5354 235.939 98.6843 235.061 97.6188 235.061C97.4786 235.061 97.365 234.941 97.365 234.794Z" fill="#ADADAD"/>
<path fill-rule="evenodd" clip-rule="evenodd" d="M128.247 236.672C128.108 236.659 128.005 236.529 128.018 236.382C128.042 236.123 128.103 235.743 128.34 235.411C128.585 235.068 128.99 234.812 129.626 234.75C129.766 234.737 129.89 234.845 129.902 234.991C129.915 235.138 129.812 235.267 129.673 235.281C129.154 235.331 128.891 235.527 128.747 235.73C128.594 235.944 128.544 236.204 128.524 236.432C128.511 236.579 128.387 236.686 128.247 236.672Z" fill="#ADADAD"/>
<path fill-rule="evenodd" clip-rule="evenodd" d="M129.537 234.221C128.419 234.221 127.513 235.171 127.513 236.343C127.513 236.985 127.636 237.495 127.877 237.843C127.909 237.889 127.943 237.937 127.978 237.987C128.129 238.201 128.306 238.452 128.447 238.71C128.626 239.038 128.779 239.432 128.779 239.887V240.456H130.296V239.916C130.296 239.455 130.454 239.057 130.635 238.727C130.77 238.481 130.94 238.238 131.086 238.029C131.129 237.968 131.171 237.909 131.208 237.854C131.444 237.507 131.562 236.996 131.562 236.343C131.562 235.171 130.656 234.221 129.537 234.221ZM127.005 236.343C127.005 234.877 128.139 233.688 129.537 233.688C130.936 233.688 132.069 234.877 132.069 236.343C132.069 237.048 131.945 237.689 131.621 238.164C131.576 238.23 131.53 238.295 131.484 238.362C131.151 238.838 130.803 239.336 130.803 239.916V240.723C130.803 240.87 130.69 240.989 130.549 240.989H128.525C128.385 240.989 128.271 240.87 128.271 240.723V239.887C128.271 239.299 127.916 238.795 127.578 238.315C127.54 238.262 127.503 238.209 127.467 238.157C127.138 237.682 127.005 237.044 127.005 236.343Z" fill="#ADADAD"/>
<path d="M207.421 85.7292L180.818 309.329L93.8703 51.65L207.421 85.7292Z" fill="white"/>
<path fill-rule="evenodd" clip-rule="evenodd" d="M159.041 235.016C159.041 234.869 159.154 234.749 159.294 234.749H165.625C165.765 234.749 165.879 234.869 165.879 235.016C165.879 235.163 165.765 235.282 165.625 235.282H159.294C159.154 235.282 159.041 235.163 159.041 235.016Z" fill="#ADADAD"/>
<path fill-rule="evenodd" clip-rule="evenodd" d="M159.041 233.688C159.041 233.541 159.154 233.422 159.294 233.422H165.625C165.765 233.422 165.879 233.541 165.879 233.688C165.879 233.835 165.765 233.955 165.625 233.955H159.294C159.154 233.955 159.041 233.835 159.041 233.688Z" fill="#ADADAD"/>
<path fill-rule="evenodd" clip-rule="evenodd" d="M159.041 236.343C159.041 236.196 159.154 236.077 159.294 236.077H165.625C165.765 236.077 165.879 236.196 165.879 236.343C165.879 236.49 165.765 236.609 165.625 236.609H159.294C159.154 236.609 159.041 236.49 159.041 236.343Z" fill="#ADADAD"/>
<path fill-rule="evenodd" clip-rule="evenodd" d="M159.041 237.671C159.041 237.523 159.154 237.404 159.294 237.404H165.625C165.765 237.404 165.879 237.523 165.879 237.671C165.879 237.818 165.765 237.937 165.625 237.937H159.294C159.154 237.937 159.041 237.818 159.041 237.671Z" fill="#ADADAD"/>
<path fill-rule="evenodd" clip-rule="evenodd" d="M159.041 238.998C159.041 238.851 159.154 238.732 159.294 238.732H165.612C165.759 238.732 165.879 238.857 165.879 239.011V240.325C165.879 240.472 165.765 240.592 165.625 240.592C165.485 240.592 165.371 240.472 165.371 240.325V239.264H159.294C159.154 239.264 159.041 239.145 159.041 238.998Z" fill="#ADADAD"/>
<path d="M140.672 146.079H132.309C132.198 146.079 132.092 146.031 132.014 145.945C131.936 145.859 131.892 145.742 131.892 145.621C131.892 145.499 131.936 145.383 132.014 145.297C132.092 145.211 132.198 145.163 132.309 145.163H140.672C141.112 145.165 141.536 144.978 141.852 144.642C142.168 144.306 142.352 143.847 142.365 143.364V120.328C142.365 120.085 142.321 119.844 142.236 119.619C142.15 119.395 142.025 119.191 141.868 119.02C141.711 118.848 141.524 118.713 141.319 118.622C141.113 118.53 140.893 118.484 140.672 118.486H119.749C119.304 118.486 118.878 118.68 118.563 119.026C118.249 119.371 118.072 119.84 118.072 120.328V143.364C118.072 143.852 118.249 144.321 118.563 144.666C118.878 145.012 119.304 145.206 119.749 145.206H128.12C128.231 145.206 128.337 145.254 128.415 145.34C128.493 145.426 128.537 145.542 128.537 145.664C128.537 145.786 128.493 145.902 128.415 145.988C128.337 146.074 128.231 146.122 128.12 146.122H119.749C119.082 146.122 118.443 145.832 117.97 145.315C117.498 144.798 117.231 144.096 117.229 143.364V120.328C117.231 119.595 117.498 118.893 117.97 118.374C118.442 117.856 119.082 117.563 119.749 117.561H140.672C141.339 117.563 141.978 117.856 142.449 118.375C142.919 118.893 143.184 119.596 143.184 120.328V143.364C143.173 144.088 142.904 144.779 142.434 145.287C141.964 145.795 141.331 146.079 140.672 146.079Z" fill="#ADADAD"/>
<path d="M140.673 117.411C141.384 117.413 142.062 117.726 142.559 118.274C143.056 118.822 143.334 119.56 143.334 120.328V143.366C143.323 144.125 143.041 144.852 142.545 145.388C142.048 145.925 141.375 146.229 140.672 146.229H132.309C132.154 146.229 132.008 146.161 131.903 146.046C131.799 145.931 131.742 145.778 131.742 145.621C131.742 145.464 131.799 145.311 131.903 145.196C132.008 145.081 132.154 145.012 132.309 145.012H140.673C141.069 145.015 141.454 144.847 141.743 144.54C142.032 144.233 142.202 143.811 142.215 143.364V120.328C142.215 120.103 142.174 119.88 142.096 119.672C142.017 119.465 141.902 119.277 141.758 119.121C141.614 118.964 141.444 118.841 141.258 118.758C141.072 118.676 140.873 118.634 140.674 118.636H119.749C119.349 118.636 118.961 118.811 118.674 119.127C118.386 119.443 118.222 119.875 118.222 120.328V143.364C118.222 143.817 118.386 144.249 118.674 144.565C118.961 144.881 119.349 145.055 119.749 145.055H128.12C128.275 145.055 128.421 145.124 128.526 145.239C128.631 145.354 128.687 145.507 128.687 145.664C128.687 145.821 128.631 145.975 128.526 146.089C128.421 146.205 128.275 146.272 128.12 146.272H119.749C119.038 146.272 118.358 145.962 117.859 145.416C117.361 144.87 117.081 144.132 117.079 143.364V120.328C117.081 119.559 117.361 118.82 117.859 118.273C118.358 117.725 119.037 117.413 119.749 117.411H140.673Z" stroke="#C5C5C5" stroke-opacity="0.4" stroke-width="0.3" stroke-miterlimit="10"/>
<path d="M140.672 210.002H132.309C132.198 210.002 132.092 209.953 132.014 209.867C131.936 209.782 131.892 209.665 131.892 209.543C131.892 209.422 131.936 209.305 132.014 209.219C132.092 209.133 132.198 209.085 132.309 209.085H140.672C141.112 209.088 141.536 208.901 141.852 208.565C142.168 208.228 142.352 207.77 142.365 207.287V184.251C142.365 184.007 142.321 183.767 142.236 183.542C142.15 183.317 142.025 183.114 141.868 182.942C141.711 182.771 141.524 182.636 141.319 182.544C141.113 182.453 140.893 182.407 140.672 182.409H119.749C119.304 182.409 118.878 182.603 118.563 182.948C118.249 183.294 118.072 183.762 118.072 184.251V207.287C118.072 207.775 118.249 208.243 118.563 208.589C118.878 208.934 119.304 209.128 119.749 209.128H128.12C128.231 209.128 128.337 209.177 128.415 209.263C128.493 209.349 128.537 209.465 128.537 209.587C128.537 209.708 128.493 209.825 128.415 209.911C128.337 209.997 128.231 210.045 128.12 210.045H119.749C119.082 210.045 118.443 209.755 117.97 209.238C117.498 208.72 117.231 208.019 117.229 207.287V184.251C117.231 183.518 117.498 182.815 117.97 182.297C118.442 181.778 119.082 181.486 119.749 181.484H140.672C141.339 181.486 141.978 181.779 142.449 182.297C142.919 182.816 143.184 183.518 143.184 184.251V207.287C143.173 208.011 142.904 208.701 142.434 209.209C141.964 209.717 141.331 210.002 140.672 210.002Z" fill="#ADADAD"/>
<path d="M140.673 181.333C141.384 181.336 142.062 181.649 142.559 182.197C143.056 182.744 143.334 183.483 143.334 184.25V207.288C143.323 208.048 143.041 208.774 142.545 209.311C142.048 209.848 141.375 210.152 140.672 210.152H132.309C132.154 210.152 132.008 210.084 131.903 209.968C131.799 209.853 131.742 209.7 131.742 209.543C131.742 209.386 131.799 209.233 131.903 209.119C132.008 209.003 132.154 208.935 132.309 208.935H140.673C141.069 208.937 141.454 208.77 141.743 208.462C142.032 208.155 142.202 207.733 142.215 207.286V184.25C142.215 184.025 142.174 183.802 142.096 183.595C142.017 183.388 141.902 183.2 141.758 183.043C141.614 182.887 141.444 182.764 141.258 182.681C141.072 182.598 140.873 182.557 140.674 182.559H119.749C119.349 182.559 118.961 182.733 118.674 183.049C118.386 183.366 118.222 183.798 118.222 184.25V207.286C118.222 207.739 118.386 208.171 118.674 208.488C118.961 208.804 119.349 208.978 119.749 208.978H128.12C128.275 208.978 128.421 209.046 128.526 209.161C128.631 209.276 128.687 209.429 128.687 209.586C128.687 209.743 128.631 209.897 128.526 210.012C128.421 210.127 128.275 210.195 128.12 210.195H119.749C119.038 210.195 118.358 209.885 117.859 209.338C117.361 208.792 117.081 208.054 117.079 207.286V184.25C117.081 183.482 117.361 182.743 117.859 182.196C118.358 181.648 119.037 181.336 119.749 181.333H140.673Z" stroke="#C5C5C5" stroke-opacity="0.4" stroke-width="0.3" stroke-miterlimit="10"/>
</g>
<defs>
<filter id="filter0_d_786_6981" x="70" y="88" width="111.818" height="173.927" filterUnits="userSpaceOnUse" color-interpolation-filters="sRGB">
<feFlood flood-opacity="0" result="BackgroundImageFix"/>
<feColorMatrix in="SourceAlpha" type="matrix" values="0 0 0 0 0 0 0 0 0 0 0 0 0 0 0 0 0 0 127 0" result="hardAlpha"/>
<feOffset dx="-3" dy="3"/>
<feGaussianBlur stdDeviation="2"/>
<feComposite in2="hardAlpha" operator="out"/>
<feColorMatrix type="matrix" values="0 0 0 0 0 0 0 0 0 0 0 0 0 0 0 0 0 0 0.25 0"/>
<feBlend mode="normal" in2="BackgroundImageFix" result="effect1_dropShadow_786_6981"/>
<feBlend mode="normal" in="SourceGraphic" in2="effect1_dropShadow_786_6981" result="shape"/>
</filter>
<clipPath id="clip0_786_6981">
<rect width="103.818" height="165.927" fill="white" transform="translate(77 89)"/>
</clipPath>
</defs>
</svg>
